<?xml version="1.0" encoding="utf-8"?>
<!-- Generator: Adobe Illustrator 26.0.1, SVG Export Plug-In . SVG Version: 6.00 Build 0)  -->
<svg version="1.1" id="Capa_1" xmlns="http://www.w3.org/2000/svg" xmlns:xlink="http://www.w3.org/1999/xlink" x="0px" y="0px"
	 viewBox="0 0 42.8 50" style="enable-background:new 0 0 42.8 50;" xml:space="preserve">
<style type="text/css">
	.st0{clip-path:url(#SVGID_00000013171783189533834640000006355248665637846682_);}
	.st1{fill:#FFFFFF;}
	.st2{fill:#AC5D5D;}
	.st3{fill:none;}
</style>
<g id="Grupo_70165" transform="translate(-1125 -6188)">
	<g id="Grupo_70164" transform="translate(1140 6188.638)">
		<g>
			<defs>
				<rect id="SVGID_1_" x="-15" y="-0.6" width="42.8" height="50"/>
			</defs>
			<clipPath id="SVGID_00000025408311720196195270000005380234329024608650_">
				<use xlink:href="#SVGID_1_"  style="overflow:visible;"/>
			</clipPath>
			<g id="Grupo_70163" style="clip-path:url(#SVGID_00000025408311720196195270000005380234329024608650_);">
				<path id="Trazado_156561" class="st1" d="M-8.5,1.2H6c5.4-3.7,19.9,5.5,19.9,12.3v34.2H-8.5V1.2z"/>
				<path id="Trazado_156562" class="st2" d="M15.3-0.6H-5.8c-2.3,0-4.1,1.9-4.1,4.1v41.7c0,2.3,1.8,4.1,4.1,4.1h29.4
					c2.3,0,4.1-1.9,4.1-4.1V12L15.3-0.6z M25.5,45.2c0,1-0.8,1.8-1.8,1.8H-5.8c-1,0-1.8-0.8-1.8-1.8V3.5c0-1,0.8-1.8,1.8-1.8h20.1
					l0,0v11.2h11.1l0,0L25.5,45.2z"/>
				<path id="Trazado_156563" class="st2" d="M-12.3,15.9h25c1.5,0,2.7,1.2,2.7,2.6c0,0,0,0,0,0v20.9c0,1.5-1.2,2.6-2.7,2.6
					c0,0,0,0,0,0h-25c-1.5,0-2.7-1.2-2.7-2.6c0,0,0,0,0,0V18.5C-15,17-13.8,15.9-12.3,15.9C-12.3,15.9-12.3,15.9-12.3,15.9"/>
				<path id="Trazado_156564" class="st1" d="M-3.3,37.5c-2.8,0-5-2.3-5-5c0-1.3,0.5-2.6,1.4-3.5l1.8-1.8c0.4-0.4,1-0.4,1.4,0
					c0.4,0.4,0.4,1,0,1.4l-1.8,1.8c-1.2,1.2-1.2,3.1-0.1,4.3c1.2,1.2,3.1,1.2,4.3,0.1c0,0,0.1-0.1,0.1-0.1l1.7-1.7
					c0.4-0.4,1-0.4,1.4,0c0.4,0.4,0.4,1,0,1.4L0.3,36C-0.6,36.9-1.9,37.4-3.3,37.5L-3.3,37.5 M4.8,31.1c-0.5,0-1-0.4-1-1
					c0-0.3,0.1-0.5,0.3-0.7l1.8-1.8C7,26.4,7,24.5,5.8,23.3c-0.6-0.6-1.4-0.9-2.2-0.9c-0.8,0-1.6,0.3-2.2,0.9l-1.7,1.7
					c-0.4,0.4-1,0.4-1.4,0c-0.4-0.4-0.4-1,0-1.4L0.1,22c1.9-2,5.1-2,7.1-0.1s2,5.1,0.1,7.1l-1.8,1.8C5.3,31,5,31.1,4.8,31.1"/>
				<path id="Trazado_156565" class="st1" d="M-2.1,32.2c-0.5,0-1-0.4-1-1c0-0.3,0.1-0.5,0.3-0.7L1.8,26c0.4-0.4,1-0.4,1.4,0
					c0.4,0.4,0.4,1,0,1.4l-4.6,4.6C-1.6,32.1-1.8,32.2-2.1,32.2"/>
			</g>
		</g>
	</g>
	<rect id="Rectángulo_8068" x="1103.6" y="6179.9" class="st3" width="85" height="66"/>
</g>
</svg>
