<svg xmlns="http://www.w3.org/2000/svg" width="81.868" height="62.591" viewBox="0 0 81.868 62.591">
  <g id="Grupo_70168" data-name="Grupo 70168" transform="translate(-915 -4714)">
    <path id="Trazado_156567" data-name="Trazado 156567" d="M-4201.128-6966.386v-12.753a8.209,8.209,0,0,1,8.369-5.779c6.775.2,59.181,0,59.181,0s5.38,0,5.978,9.465,0,37.063,0,37.063l-3.487,4.583h6.078s.7,8.967-8.569,9.066-62.967,0-62.967,0-5.978-2.69-6.576-5.181.1-3.984,3.786-3.387-.2-1.595-.6-2.79-1.2-9.864-1.2-9.864Z" transform="translate(5120 11700)" fill="#fff"/>
    <g id="Grupo_70141" data-name="Grupo 70141" transform="translate(426.675 -1037.138)">
      <rect id="Rectángulo_8051" data-name="Rectángulo 8051" width="60.743" height="40.263" transform="translate(498.888 5758.124)" fill="#e3f8f2"/>
      <path id="Trazado_156548" data-name="Trazado 156548" d="M1447.022,90.9v27.5l-11.18-6.587-8.582-.786-.544-7.323.483-5.912,2.357-.3,7.238-.423,10.228-6.466.363.363" transform="translate(-913.585 5674.406)" fill="#fff"/>
      <path id="Trazado_156553" data-name="Trazado 156553" d="M1352.171,55.249h-3.553a8.069,8.069,0,0,0,1.931-5.242V11.95a8.1,8.1,0,0,0-8.09-8.089h-59.886a8.1,8.1,0,0,0-8.09,8.09V50.007a8.082,8.082,0,0,0,1.942,5.242h-3.564a1.279,1.279,0,0,0-1.279,1.279,9.936,9.936,0,0,0,9.924,9.924h62.02a9.935,9.935,0,0,0,9.924-9.924A1.279,1.279,0,0,0,1352.171,55.249Zm-75.129-5.242V11.95a5.538,5.538,0,0,1,5.531-5.531h59.886a5.537,5.537,0,0,1,5.531,5.532V50.007a5.535,5.535,0,0,1-3.772,5.242h-63.4A5.556,5.556,0,0,1,1277.042,50.007Zm49.487,7.8c-.424.941-1.05,1.565-1.635,1.565h-24.755c-.587,0-1.211-.623-1.635-1.565Zm17,6.087h-62.02a7.379,7.379,0,0,1-7.254-6.087h21.53c.733,2.513,2.424,4.123,4.356,4.123h24.755c1.928,0,3.622-1.612,4.355-4.123h21.532a7.378,7.378,0,0,1-7.255,6.087Zm-1.067-53.7h-59.886a1.78,1.78,0,0,0-1.756,1.756V50.007a1.78,1.78,0,0,0,1.756,1.756h59.886a1.78,1.78,0,0,0,1.756-1.756V11.951a1.78,1.78,0,0,0-1.756-1.756m-.8,39.01h-58.281V12.753h58.281Z" transform="translate(-783.257 5747.276)"/>
      <path id="Trazado_156554" data-name="Trazado 156554" d="M1570.958,149.811a1.014,1.014,0,1,0,.69,1.907,6.085,6.085,0,0,0,0-11.442,1.014,1.014,0,0,0-.69,1.906,4.057,4.057,0,0,1,0,7.629" transform="translate(-1034.2 5632.72)"/>
      <path id="Trazado_156555" data-name="Trazado 156555" d="M1595.357,116.829a1.014,1.014,0,1,0-1.1,1.706,9.124,9.124,0,0,1,0,15.348,1.014,1.014,0,1,0,1.1,1.706c3.7-2.511,4.432-5.324,4.432-5.324a12.8,12.8,0,0,0,.09-7.662,11.112,11.112,0,0,0-4.523-5.773" transform="translate(-1053.947 5652.507)"/>
      <path id="Trazado_156556" data-name="Trazado 156556" d="M1423.545,104.546h6.295l10.9,6.939a1.014,1.014,0,0,0,1.558-.855V82.241a1.014,1.014,0,0,0-1.558-.855l-10.9,6.939h-6.295A3.553,3.553,0,0,0,1420,91.872V101a3.553,3.553,0,0,0,3.549,3.548m7.6-14.652,9.125-5.807v24.7l-9.125-5.807Zm-9.125,1.978a1.522,1.522,0,0,1,1.521-1.521h5.576v12.167h-5.576a1.522,1.522,0,0,1-1.521-1.521Z" transform="translate(-907.939 5682.281)"/>
    </g>
  </g>
</svg>
