<svg xmlns="http://www.w3.org/2000/svg" xmlns:xlink="http://www.w3.org/1999/xlink" width="820" height="523" viewBox="0 0 820 523">
  <defs>
    <linearGradient id="linear-gradient" x1="0.5" x2="0.5" y2="1" gradientUnits="objectBoundingBox">
      <stop offset="0" stop-color="#e3f8f2"/>
      <stop offset="0.659" stop-color="#fefffe"/>
      <stop offset="1" stop-color="#fff"/>
    </linearGradient>
    <linearGradient id="linear-gradient-2" x1="0.378" y1="0.354" x2="0" y2="0.036" gradientUnits="objectBoundingBox">
      <stop offset="0" stop-color="#95ebd1" stop-opacity="0"/>
      <stop offset="1" stop-color="#607b82" stop-opacity="0.757"/>
    </linearGradient>
    <linearGradient id="linear-gradient-3" x1="0.378" y1="0.646" x2="0" y2="0.964" xlink:href="#linear-gradient-2"/>
  </defs>
  <g id="Grupo_70322" data-name="Grupo 70322" transform="translate(3282 5930)">
    <g id="Grupo_69718" data-name="Grupo 69718" transform="translate(-3672 -9110)">
      <path id="Trazado_156192" data-name="Trazado 156192" d="M0,0H820V523H0Z" transform="translate(390 3180)" fill="url(#linear-gradient)"/>
      <path id="Intersección_27" data-name="Intersección 27" d="M0,133.964H176.448V0H0Z" transform="translate(1209.964 3180) rotate(90)" fill="url(#linear-gradient-2)"/>
      <path id="Intersección_28" data-name="Intersección 28" d="M0,0H176.448V133.964H0Z" transform="translate(523.964 3180) rotate(90)" fill="url(#linear-gradient-3)"/>
    </g>
    <g id="Grupo_70187" data-name="Grupo 70187">
      <rect id="Rectángulo_7849" data-name="Rectángulo 7849" width="385" height="456" transform="translate(-3064 -5896)" fill="#e0e0e0"/>
      <g id="Grupo_69720" data-name="Grupo 69720" transform="translate(-193 -2)">
        <rect id="Rectángulo_7856" data-name="Rectángulo 7856" width="320" height="51" transform="translate(-2837 -5867)" fill="#fff"/>
        <rect id="Rectángulo_7857" data-name="Rectángulo 7857" width="320" height="29" transform="translate(-2837 -5807)" fill="#fff"/>
        <rect id="Rectángulo_7858" data-name="Rectángulo 7858" width="320" height="29" transform="translate(-2837 -5492)" fill="#fff"/>
        <rect id="Rectángulo_7859" data-name="Rectángulo 7859" width="219" height="268" transform="translate(-2837 -5769)" fill="#fff"/>
        <rect id="Rectángulo_7860" data-name="Rectángulo 7860" width="93" height="268" transform="translate(-2610 -5769)" fill="#fff"/>
        <path id="Trazado_156978" data-name="Trazado 156978" d="M32.776,9.972v.044L37,11.5v1.992l-6.313-2.688V9.144L37,6.463V8.456ZM40.84,7.079a2.722,2.722,0,0,1,.916-.846,2.639,2.639,0,0,1,3.146.52A3.845,3.845,0,0,1,45.608,9.3V14H43.469V9.283a2.19,2.19,0,0,0-.3-1.307,1.054,1.054,0,0,0-.89-.385,2.129,2.129,0,0,0-.853.157,1.473,1.473,0,0,0-.59.45V14H38.7V2.574H40.84Zm9.814,7.075a3.566,3.566,0,0,1-2.769-1.088,3.986,3.986,0,0,1-1-2.8V9.972a4.339,4.339,0,0,1,.967-2.915,3.287,3.287,0,0,1,2.659-1.128,3.077,3.077,0,0,1,2.45.978,3.864,3.864,0,0,1,.853,2.633v1.106H49.094l-.022.044a2.141,2.141,0,0,0,.494,1.318,1.655,1.655,0,0,0,1.315.505,4.4,4.4,0,0,0,1.219-.146,4.976,4.976,0,0,0,1.036-.447l.579,1.318a3.97,3.97,0,0,1-1.289.652A5.717,5.717,0,0,1,50.654,14.154Zm-.139-6.577a1.188,1.188,0,0,0-.992.443A2.223,2.223,0,0,0,49.1,9.2l.015.037h2.607V9.071a1.851,1.851,0,0,0-.286-1.095A1.057,1.057,0,0,0,50.515,7.577ZM59.736,14a4.5,4.5,0,0,1-.2-.571,3.974,3.974,0,0,1-.121-.615,2.931,2.931,0,0,1-.872.959,2.185,2.185,0,0,1-1.289.381,2.676,2.676,0,0,1-1.919-.641,2.3,2.3,0,0,1-.674-1.747,2.09,2.09,0,0,1,.9-1.805,4.481,4.481,0,0,1,2.618-.641h1.2V8.69a1.233,1.233,0,0,0-.3-.886,1.179,1.179,0,0,0-.894-.315,1.162,1.162,0,0,0-.8.253.882.882,0,0,0-.282.692H55.041l-.015-.044A2.01,2.01,0,0,1,55.9,6.657a3.8,3.8,0,0,1,2.421-.729,3.548,3.548,0,0,1,2.311.718A2.5,2.5,0,0,1,61.516,8.7v3.274a6.192,6.192,0,0,0,.084,1.047,5.256,5.256,0,0,0,.267.974Zm-1.956-1.428a1.822,1.822,0,0,0,1-.278,1.5,1.5,0,0,0,.6-.645V10.528h-1.2a1.424,1.424,0,0,0-1.029.337,1.107,1.107,0,0,0-.348.828.826.826,0,0,0,.26.641A1.029,1.029,0,0,0,57.781,12.572ZM62.79,10.1A5.15,5.15,0,0,1,63.6,7.079a2.628,2.628,0,0,1,2.281-1.15,2.219,2.219,0,0,1,1.069.256,2.573,2.573,0,0,1,.835.732V2.574h2.146V14H68.108l-.183-.974a2.649,2.649,0,0,1-.886.839,2.343,2.343,0,0,1-1.172.289A2.68,2.68,0,0,1,63.6,13.084a4.566,4.566,0,0,1-.809-2.827Zm2.131.154a3.228,3.228,0,0,0,.352,1.637,1.224,1.224,0,0,0,1.143.6,1.664,1.664,0,0,0,.806-.187,1.49,1.49,0,0,0,.564-.546V8.382a1.646,1.646,0,0,0-.56-.582,1.49,1.49,0,0,0-.795-.209,1.207,1.207,0,0,0-1.146.7,3.932,3.932,0,0,0-.363,1.816Zm10.1,3.9a3.566,3.566,0,0,1-2.769-1.088,3.986,3.986,0,0,1-1-2.8V9.972a4.339,4.339,0,0,1,.967-2.915,3.287,3.287,0,0,1,2.659-1.128,3.077,3.077,0,0,1,2.45.978,3.864,3.864,0,0,1,.853,2.633v1.106H73.462l-.022.044a2.141,2.141,0,0,0,.494,1.318,1.655,1.655,0,0,0,1.315.505,4.4,4.4,0,0,0,1.219-.146A4.976,4.976,0,0,0,77.5,11.92l.579,1.318a3.97,3.97,0,0,1-1.289.652A5.717,5.717,0,0,1,75.022,14.154Zm-.139-6.577a1.188,1.188,0,0,0-.992.443A2.223,2.223,0,0,0,73.469,9.2l.015.037h2.607V9.071a1.851,1.851,0,0,0-.286-1.095A1.057,1.057,0,0,0,74.883,7.577Zm8.716.337-.784-.022a1.424,1.424,0,0,0-.784.2,1.253,1.253,0,0,0-.469.557V14H79.431V6.075h1.985l.1,1.172a2.5,2.5,0,0,1,.721-.97,1.685,1.685,0,0,1,1.318-.322q.135.026.275.062Zm5.457,2.139v-.044L84.763,8.5V6.529L91.15,9.21v1.663l-6.387,2.688V11.583ZM112.8,9.972v.044l4.226,1.487v1.992l-6.313-2.688V9.144l6.313-2.681V8.456Zm7.134,4.944h-2.08l3.911-11.58h2.08Zm6.973-7.837a2.722,2.722,0,0,1,.916-.846,2.639,2.639,0,0,1,3.146.52,3.845,3.845,0,0,1,.707,2.545V14h-2.139V9.283a2.19,2.19,0,0,0-.3-1.307,1.054,1.054,0,0,0-.89-.385,2.129,2.129,0,0,0-.853.157,1.473,1.473,0,0,0-.59.45V14h-2.139V2.574h2.139Zm9.814,7.075a3.566,3.566,0,0,1-2.769-1.088,3.986,3.986,0,0,1-1-2.8V9.972a4.339,4.339,0,0,1,.967-2.915,3.287,3.287,0,0,1,2.659-1.128,3.077,3.077,0,0,1,2.45.978,3.864,3.864,0,0,1,.853,2.633v1.106h-4.724l-.022.044a2.141,2.141,0,0,0,.494,1.318,1.655,1.655,0,0,0,1.315.505,4.4,4.4,0,0,0,1.219-.146,4.976,4.976,0,0,0,1.036-.447l.579,1.318a3.97,3.97,0,0,1-1.289.652A5.717,5.717,0,0,1,136.721,14.154Zm-.139-6.577a1.188,1.188,0,0,0-.992.443,2.223,2.223,0,0,0-.421,1.176l.015.037h2.607V9.071a1.851,1.851,0,0,0-.286-1.095A1.057,1.057,0,0,0,136.582,7.577ZM145.8,14a4.5,4.5,0,0,1-.2-.571,3.974,3.974,0,0,1-.121-.615,2.931,2.931,0,0,1-.872.959,2.185,2.185,0,0,1-1.289.381,2.676,2.676,0,0,1-1.919-.641,2.3,2.3,0,0,1-.674-1.747,2.09,2.09,0,0,1,.9-1.805,4.481,4.481,0,0,1,2.618-.641h1.2V8.69a1.233,1.233,0,0,0-.3-.886,1.179,1.179,0,0,0-.894-.315,1.162,1.162,0,0,0-.8.253.882.882,0,0,0-.282.692h-2.058l-.015-.044a2.01,2.01,0,0,1,.875-1.732,3.8,3.8,0,0,1,2.421-.729,3.548,3.548,0,0,1,2.311.718,2.5,2.5,0,0,1,.883,2.058v3.274a6.192,6.192,0,0,0,.084,1.047,5.256,5.256,0,0,0,.267.974Zm-1.956-1.428a1.822,1.822,0,0,0,1-.278,1.5,1.5,0,0,0,.6-.645V10.528h-1.2a1.424,1.424,0,0,0-1.029.337,1.107,1.107,0,0,0-.348.828.826.826,0,0,0,.26.641A1.029,1.029,0,0,0,143.847,12.572Zm5.01-2.468a5.15,5.15,0,0,1,.809-3.025,2.628,2.628,0,0,1,2.281-1.15,2.219,2.219,0,0,1,1.069.256,2.573,2.573,0,0,1,.835.732V2.574H156V14h-1.824l-.183-.974a2.649,2.649,0,0,1-.886.839,2.343,2.343,0,0,1-1.172.289,2.68,2.68,0,0,1-2.267-1.069,4.566,4.566,0,0,1-.809-2.827Zm2.131.154a3.228,3.228,0,0,0,.352,1.637,1.224,1.224,0,0,0,1.143.6,1.664,1.664,0,0,0,.806-.187,1.49,1.49,0,0,0,.564-.546V8.382a1.646,1.646,0,0,0-.56-.582,1.49,1.49,0,0,0-.795-.209,1.207,1.207,0,0,0-1.146.7,3.932,3.932,0,0,0-.363,1.816Zm10.1,3.9a3.566,3.566,0,0,1-2.769-1.088,3.986,3.986,0,0,1-1-2.8V9.972a4.339,4.339,0,0,1,.967-2.915,3.287,3.287,0,0,1,2.659-1.128,3.077,3.077,0,0,1,2.45.978,3.864,3.864,0,0,1,.853,2.633v1.106h-4.724l-.022.044A2.141,2.141,0,0,0,160,12.008a1.655,1.655,0,0,0,1.315.505,4.4,4.4,0,0,0,1.219-.146,4.976,4.976,0,0,0,1.036-.447l.579,1.318a3.97,3.97,0,0,1-1.289.652A5.717,5.717,0,0,1,161.089,14.154Zm-.139-6.577a1.188,1.188,0,0,0-.992.443,2.223,2.223,0,0,0-.421,1.176l.015.037h2.607V9.071a1.851,1.851,0,0,0-.286-1.095A1.057,1.057,0,0,0,160.949,7.577Zm8.716.337-.784-.022a1.424,1.424,0,0,0-.784.2,1.253,1.253,0,0,0-.469.557V14H165.5V6.075h1.985l.1,1.172a2.5,2.5,0,0,1,.721-.97,1.685,1.685,0,0,1,1.318-.322q.135.026.275.062Zm5.457,2.139v-.044L170.83,8.5V6.529l6.387,2.681v1.663l-6.387,2.688V11.583Z" transform="translate(-2781 -5850)" fill="#636363"/>
        <path id="Trazado_156977" data-name="Trazado 156977" d="M54.66,9.972v.044L58.886,11.5v1.992l-6.313-2.688V9.144l6.313-2.681V8.456Zm7.932-3.9.1,1.135a2.9,2.9,0,0,1,.974-.945,2.529,2.529,0,0,1,1.3-.337,2.356,2.356,0,0,1,1.875.773,3.663,3.663,0,0,1,.674,2.443V14H65.361V9.151a1.9,1.9,0,0,0-.3-1.2,1.093,1.093,0,0,0-.89-.355,1.867,1.867,0,0,0-.839.179,1.637,1.637,0,0,0-.6.494V14H60.6V6.075ZM73.777,14a4.5,4.5,0,0,1-.2-.571,3.974,3.974,0,0,1-.121-.615,2.931,2.931,0,0,1-.872.959,2.185,2.185,0,0,1-1.289.381,2.676,2.676,0,0,1-1.919-.641,2.3,2.3,0,0,1-.674-1.747,2.09,2.09,0,0,1,.9-1.805,4.481,4.481,0,0,1,2.618-.641h1.2V8.69a1.233,1.233,0,0,0-.3-.886,1.179,1.179,0,0,0-.894-.315,1.162,1.162,0,0,0-.8.253.882.882,0,0,0-.282.692H69.082l-.015-.044a2.01,2.01,0,0,1,.875-1.732,3.8,3.8,0,0,1,2.421-.729,3.548,3.548,0,0,1,2.311.718A2.5,2.5,0,0,1,75.556,8.7v3.274a6.192,6.192,0,0,0,.084,1.047,5.256,5.256,0,0,0,.267.974Zm-1.956-1.428a1.822,1.822,0,0,0,1-.278,1.5,1.5,0,0,0,.6-.645V10.528h-1.2a1.424,1.424,0,0,0-1.029.337,1.107,1.107,0,0,0-.348.828.826.826,0,0,0,.26.641A1.029,1.029,0,0,0,71.821,12.572Zm8.093-1.523.139.732H80.1l.146-.732,1.3-4.973h2.234L81.086,14H79.043l-2.7-7.925h2.234Zm9.141-1v-.044L84.763,8.5V6.529L91.15,9.21v1.663l-6.387,2.688V11.583ZM112.8,9.972v.044l4.226,1.487v1.992l-6.313-2.688V9.144l6.313-2.681V8.456Zm7.134,4.944h-2.08l3.911-11.58h2.08Zm6.841-8.84.1,1.135a2.9,2.9,0,0,1,.974-.945,2.529,2.529,0,0,1,1.3-.337,2.356,2.356,0,0,1,1.875.773,3.663,3.663,0,0,1,.674,2.443V14h-2.146V9.151a1.9,1.9,0,0,0-.3-1.2,1.093,1.093,0,0,0-.89-.355,1.867,1.867,0,0,0-.839.179,1.637,1.637,0,0,0-.6.494V14h-2.139V6.075ZM137.959,14a4.5,4.5,0,0,1-.2-.571,3.974,3.974,0,0,1-.121-.615,2.931,2.931,0,0,1-.872.959,2.185,2.185,0,0,1-1.289.381,2.676,2.676,0,0,1-1.919-.641,2.3,2.3,0,0,1-.674-1.747,2.09,2.09,0,0,1,.9-1.805A4.481,4.481,0,0,1,136.4,9.32h1.2V8.69a1.233,1.233,0,0,0-.3-.886,1.179,1.179,0,0,0-.894-.315,1.162,1.162,0,0,0-.8.253.882.882,0,0,0-.282.692h-2.058l-.015-.044a2.01,2.01,0,0,1,.875-1.732,3.8,3.8,0,0,1,2.421-.729,3.548,3.548,0,0,1,2.311.718,2.5,2.5,0,0,1,.883,2.058v3.274a6.192,6.192,0,0,0,.084,1.047,5.256,5.256,0,0,0,.267.974ZM136,12.572a1.822,1.822,0,0,0,1-.278,1.5,1.5,0,0,0,.6-.645V10.528h-1.2a1.424,1.424,0,0,0-1.029.337,1.107,1.107,0,0,0-.348.828.826.826,0,0,0,.26.641A1.029,1.029,0,0,0,136,12.572Zm8.093-1.523.139.732h.044l.146-.732,1.3-4.973h2.234L145.268,14h-2.043l-2.7-7.925h2.234Zm9.141-1v-.044L148.945,8.5V6.529l6.387,2.681v1.663l-6.387,2.688V11.583Z" transform="translate(-2781 -5801)" fill="#636363"/>
        <path id="Trazado_156976" data-name="Trazado 156976" d="M38.225,9.972v.044L42.451,11.5v1.992l-6.313-2.688V9.144l6.313-2.681V8.456ZM44.758,14V7.577H43.579v-1.5h1.179V5.2a2.68,2.68,0,0,1,.769-2.054,3.036,3.036,0,0,1,2.161-.721,3.908,3.908,0,0,1,.553.04q.282.04.619.114l-.183,1.589q-.176-.029-.341-.051a2.947,2.947,0,0,0-.385-.022,1.027,1.027,0,0,0-.787.286,1.156,1.156,0,0,0-.267.82v.879H48.42v1.5H46.9V14ZM49.1,9.964a4.253,4.253,0,0,1,.989-2.9,3.447,3.447,0,0,1,2.739-1.132,3.483,3.483,0,0,1,2.754,1.128,4.23,4.23,0,0,1,1,2.908v.154a4.237,4.237,0,0,1-.992,2.911,3.917,3.917,0,0,1-5.493,0,4.237,4.237,0,0,1-.992-2.911Zm2.131.154a3.448,3.448,0,0,0,.381,1.74,1.463,1.463,0,0,0,2.443,0,3.425,3.425,0,0,0,.385-1.736V9.964a3.39,3.39,0,0,0-.388-1.721,1.313,1.313,0,0,0-1.223-.667,1.3,1.3,0,0,0-1.212.67,3.42,3.42,0,0,0-.385,1.718Zm6.335-.154a4.253,4.253,0,0,1,.989-2.9A3.447,3.447,0,0,1,61.3,5.929,3.483,3.483,0,0,1,64.05,7.057a4.23,4.23,0,0,1,1,2.908v.154a4.237,4.237,0,0,1-.992,2.911,3.917,3.917,0,0,1-5.493,0,4.237,4.237,0,0,1-.992-2.911Zm2.131.154a3.448,3.448,0,0,0,.381,1.74,1.463,1.463,0,0,0,2.443,0,3.425,3.425,0,0,0,.385-1.736V9.964a3.39,3.39,0,0,0-.388-1.721A1.313,1.313,0,0,0,61.3,7.577a1.3,1.3,0,0,0-1.212.67A3.42,3.42,0,0,0,59.7,9.964Zm9.229-5.984V6.075h1.34v1.5h-1.34v4.036a.921.921,0,0,0,.194.659.681.681,0,0,0,.509.2,2.042,2.042,0,0,0,.293-.018,2.467,2.467,0,0,0,.286-.062l.176,1.545a4.33,4.33,0,0,1-.626.165,3.733,3.733,0,0,1-.663.055,2.279,2.279,0,0,1-1.7-.608,2.666,2.666,0,0,1-.6-1.926V7.577H65.639v-1.5H66.8V4.134Zm6.094,10.02a3.566,3.566,0,0,1-2.769-1.088,3.986,3.986,0,0,1-1-2.8V9.972a4.339,4.339,0,0,1,.967-2.915,3.287,3.287,0,0,1,2.659-1.128,3.077,3.077,0,0,1,2.45.978,3.864,3.864,0,0,1,.853,2.633v1.106H73.462l-.022.044a2.141,2.141,0,0,0,.494,1.318,1.655,1.655,0,0,0,1.315.505,4.4,4.4,0,0,0,1.219-.146A4.976,4.976,0,0,0,77.5,11.92l.579,1.318a3.97,3.97,0,0,1-1.289.652A5.717,5.717,0,0,1,75.022,14.154Zm-.139-6.577a1.188,1.188,0,0,0-.992.443A2.223,2.223,0,0,0,73.469,9.2l.015.037h2.607V9.071a1.851,1.851,0,0,0-.286-1.095A1.057,1.057,0,0,0,74.883,7.577Zm8.716.337-.784-.022a1.424,1.424,0,0,0-.784.2,1.253,1.253,0,0,0-.469.557V14H79.431V6.075h1.985l.1,1.172a2.5,2.5,0,0,1,.721-.97,1.685,1.685,0,0,1,1.318-.322q.135.026.275.062Zm5.457,2.139v-.044L84.763,8.5V6.529L91.15,9.21v1.663l-6.387,2.688V11.583ZM112.8,9.972v.044l4.226,1.487v1.992l-6.313-2.688V9.144l6.313-2.681V8.456Zm7.134,4.944h-2.08l3.911-11.58h2.08ZM125.376,14V7.577H124.2v-1.5h1.179V5.2a2.68,2.68,0,0,1,.769-2.054,3.036,3.036,0,0,1,2.161-.721,3.908,3.908,0,0,1,.553.04q.282.04.619.114l-.183,1.589q-.176-.029-.341-.051a2.947,2.947,0,0,0-.385-.022,1.027,1.027,0,0,0-.787.286,1.156,1.156,0,0,0-.267.82v.879h1.523v1.5h-1.523V14Zm4.343-4.036a4.253,4.253,0,0,1,.989-2.9,3.447,3.447,0,0,1,2.739-1.132A3.483,3.483,0,0,1,136.2,7.057a4.23,4.23,0,0,1,1,2.908v.154a4.237,4.237,0,0,1-.992,2.911,3.917,3.917,0,0,1-5.493,0,4.237,4.237,0,0,1-.992-2.911Zm2.131.154a3.448,3.448,0,0,0,.381,1.74,1.463,1.463,0,0,0,2.443,0,3.425,3.425,0,0,0,.385-1.736V9.964a3.39,3.39,0,0,0-.388-1.721,1.313,1.313,0,0,0-1.223-.667,1.3,1.3,0,0,0-1.212.67,3.42,3.42,0,0,0-.385,1.718Zm6.335-.154a4.253,4.253,0,0,1,.989-2.9,3.447,3.447,0,0,1,2.739-1.132,3.483,3.483,0,0,1,2.754,1.128,4.23,4.23,0,0,1,1,2.908v.154a4.237,4.237,0,0,1-.992,2.911,3.917,3.917,0,0,1-5.493,0,4.237,4.237,0,0,1-.992-2.911Zm2.131.154a3.448,3.448,0,0,0,.381,1.74,1.463,1.463,0,0,0,2.443,0,3.425,3.425,0,0,0,.385-1.736V9.964a3.39,3.39,0,0,0-.388-1.721,1.313,1.313,0,0,0-1.223-.667,1.3,1.3,0,0,0-1.212.67,3.42,3.42,0,0,0-.385,1.718Zm9.229-5.984V6.075h1.34v1.5h-1.34v4.036a.921.921,0,0,0,.194.659.681.681,0,0,0,.509.2,2.042,2.042,0,0,0,.293-.018,2.467,2.467,0,0,0,.286-.062L151,13.934a4.33,4.33,0,0,1-.626.165,3.733,3.733,0,0,1-.663.055,2.279,2.279,0,0,1-1.7-.608,2.666,2.666,0,0,1-.6-1.926V7.577h-1.157v-1.5h1.157V4.134Zm6.094,10.02a3.566,3.566,0,0,1-2.769-1.088,3.986,3.986,0,0,1-1-2.8V9.972a4.339,4.339,0,0,1,.967-2.915A3.287,3.287,0,0,1,155.5,5.929a3.077,3.077,0,0,1,2.45.978A3.864,3.864,0,0,1,158.8,9.54v1.106h-4.724l-.022.044a2.141,2.141,0,0,0,.494,1.318,1.655,1.655,0,0,0,1.315.505,4.4,4.4,0,0,0,1.219-.146,4.976,4.976,0,0,0,1.036-.447l.579,1.318a3.97,3.97,0,0,1-1.289.652A5.717,5.717,0,0,1,155.639,14.154ZM155.5,7.577a1.188,1.188,0,0,0-.992.443,2.223,2.223,0,0,0-.421,1.176l.015.037h2.607V9.071a1.851,1.851,0,0,0-.286-1.095A1.057,1.057,0,0,0,155.5,7.577Zm8.716.337-.784-.022a1.424,1.424,0,0,0-.784.2,1.253,1.253,0,0,0-.469.557V14h-2.131V6.075h1.985l.1,1.172a2.5,2.5,0,0,1,.721-.97,1.685,1.685,0,0,1,1.318-.322q.135.026.275.062Zm5.457,2.139v-.044L165.381,8.5V6.529l6.387,2.681v1.663l-6.387,2.688V11.583Z" transform="translate(-2781 -5489)" fill="#636363"/>
        <path id="Trazado_156975" data-name="Trazado 156975" d="M75.126,9.972v.044L79.352,11.5v1.992l-6.313-2.688V9.144l6.313-2.681V8.456ZM85.387,11.8a.738.738,0,0,0-.341-.6,3.459,3.459,0,0,0-1.263-.443,5.039,5.039,0,0,1-2.113-.842,1.84,1.84,0,0,1-.721-1.531,2.183,2.183,0,0,1,.864-1.736,3.485,3.485,0,0,1,2.3-.718,3.761,3.761,0,0,1,2.406.718,2.1,2.1,0,0,1,.868,1.787l-.015.044H85.307A1.037,1.037,0,0,0,85,7.7a1.438,1.438,0,0,0-1.7-.044.8.8,0,0,0-.3.63.711.711,0,0,0,.311.6,3.465,3.465,0,0,0,1.263.414,5.141,5.141,0,0,1,2.172.861,1.888,1.888,0,0,1,.714,1.564,2.092,2.092,0,0,1-.916,1.75,3.952,3.952,0,0,1-2.417.681,3.673,3.673,0,0,1-2.5-.8,2.242,2.242,0,0,1-.875-1.827l.015-.044h1.956a1.111,1.111,0,0,0,.417.923,1.724,1.724,0,0,0,1.033.286,1.469,1.469,0,0,0,.9-.238A.772.772,0,0,0,85.387,11.8Zm6.885,2.351A3.566,3.566,0,0,1,89.5,13.066a3.986,3.986,0,0,1-1-2.8V9.972a4.339,4.339,0,0,1,.967-2.915,3.287,3.287,0,0,1,2.659-1.128,3.077,3.077,0,0,1,2.45.978,3.864,3.864,0,0,1,.853,2.633v1.106H90.712l-.022.044a2.141,2.141,0,0,0,.494,1.318,1.655,1.655,0,0,0,1.315.505,4.4,4.4,0,0,0,1.219-.146,4.976,4.976,0,0,0,1.036-.447l.579,1.318a3.97,3.97,0,0,1-1.289.652A5.717,5.717,0,0,1,92.272,14.154Zm-.139-6.577a1.188,1.188,0,0,0-.992.443A2.223,2.223,0,0,0,90.719,9.2l.015.037h2.607V9.071a1.851,1.851,0,0,0-.286-1.095A1.057,1.057,0,0,0,92.133,7.577ZM98.93,14H96.791V2.574H98.93Zm5.193.154a3.566,3.566,0,0,1-2.769-1.088,3.986,3.986,0,0,1-1-2.8V9.972a4.339,4.339,0,0,1,.967-2.915,3.287,3.287,0,0,1,2.659-1.128,3.077,3.077,0,0,1,2.45.978,3.864,3.864,0,0,1,.853,2.633v1.106h-4.724l-.022.044a2.141,2.141,0,0,0,.494,1.318,1.655,1.655,0,0,0,1.315.505,4.4,4.4,0,0,0,1.219-.146,4.976,4.976,0,0,0,1.036-.447l.579,1.318a3.97,3.97,0,0,1-1.289.652A5.717,5.717,0,0,1,104.123,14.154Zm-.139-6.577a1.188,1.188,0,0,0-.992.443A2.223,2.223,0,0,0,102.57,9.2l.015.037h2.607V9.071a1.851,1.851,0,0,0-.286-1.095A1.057,1.057,0,0,0,103.983,7.577Zm7.859,4.937a1.19,1.19,0,0,0,.886-.333,1.21,1.21,0,0,0,.33-.89h1.948l.015.044a2.48,2.48,0,0,1-.894,2.01,3.342,3.342,0,0,1-2.285.809,3.377,3.377,0,0,1-2.717-1.124,4.273,4.273,0,0,1-.959-2.875v-.22a4.3,4.3,0,0,1,.956-2.875,3.347,3.347,0,0,1,2.706-1.132,3.268,3.268,0,0,1,2.336.835,2.79,2.79,0,0,1,.857,2.2L115.006,9h-1.948a1.581,1.581,0,0,0-.326-1.022,1.1,1.1,0,0,0-.9-.406,1.221,1.221,0,0,0-1.176.663,3.635,3.635,0,0,0-.348,1.7v.22a3.622,3.622,0,0,0,.348,1.707A1.237,1.237,0,0,0,111.842,12.513Zm6.987-8.379V6.075h1.34v1.5h-1.34v4.036a.921.921,0,0,0,.194.659.681.681,0,0,0,.509.2,2.042,2.042,0,0,0,.293-.018,2.467,2.467,0,0,0,.286-.062l.176,1.545a4.33,4.33,0,0,1-.626.165,3.733,3.733,0,0,1-.663.055,2.279,2.279,0,0,1-1.7-.608,2.666,2.666,0,0,1-.6-1.926V7.577h-1.157v-1.5H116.7V4.134ZM123.737,14H121.6V6.075h2.139Zm0-9.822H121.6v-1.6h2.139Zm1.428,5.786a4.253,4.253,0,0,1,.989-2.9,3.447,3.447,0,0,1,2.739-1.132,3.483,3.483,0,0,1,2.754,1.128,4.23,4.23,0,0,1,1,2.908v.154a4.237,4.237,0,0,1-.992,2.911,3.917,3.917,0,0,1-5.493,0,4.237,4.237,0,0,1-.992-2.911Zm2.131.154a3.448,3.448,0,0,0,.381,1.74,1.463,1.463,0,0,0,2.443,0,3.425,3.425,0,0,0,.385-1.736V9.964a3.39,3.39,0,0,0-.388-1.721,1.313,1.313,0,0,0-1.223-.667,1.3,1.3,0,0,0-1.212.67,3.42,3.42,0,0,0-.385,1.718Zm8.621-4.043.1,1.135a2.9,2.9,0,0,1,.974-.945,2.529,2.529,0,0,1,1.3-.337,2.356,2.356,0,0,1,1.875.773,3.663,3.663,0,0,1,.674,2.443V14h-2.146V9.151a1.9,1.9,0,0,0-.3-1.2,1.093,1.093,0,0,0-.89-.355,1.867,1.867,0,0,0-.839.179,1.637,1.637,0,0,0-.6.494V14h-2.139V6.075Zm10.854,3.977v-.044L142.479,8.5V6.529l6.387,2.681v1.663l-6.387,2.688V11.583ZM72.1,177.972v.044l4.226,1.487v1.992l-6.313-2.688v-1.663l6.313-2.681v1.992Zm7.134,4.944h-2.08l3.911-11.58h2.08Zm9.17-3.113a.738.738,0,0,0-.341-.6,3.459,3.459,0,0,0-1.263-.443,5.039,5.039,0,0,1-2.113-.842,1.84,1.84,0,0,1-.721-1.531,2.183,2.183,0,0,1,.864-1.736,3.485,3.485,0,0,1,2.3-.718,3.761,3.761,0,0,1,2.406.718,2.1,2.1,0,0,1,.868,1.787l-.015.044H88.328a1.037,1.037,0,0,0-.308-.776,1.438,1.438,0,0,0-1.7-.044.8.8,0,0,0-.3.63.711.711,0,0,0,.311.6,3.465,3.465,0,0,0,1.263.414,5.141,5.141,0,0,1,2.172.861,1.888,1.888,0,0,1,.714,1.564,2.092,2.092,0,0,1-.916,1.75,3.952,3.952,0,0,1-2.417.681,3.673,3.673,0,0,1-2.5-.8,2.242,2.242,0,0,1-.875-1.827l.015-.044h1.956a1.111,1.111,0,0,0,.417.923,1.724,1.724,0,0,0,1.033.286,1.469,1.469,0,0,0,.9-.238A.772.772,0,0,0,88.408,179.8Zm6.885,2.351a3.566,3.566,0,0,1-2.769-1.088,3.986,3.986,0,0,1-1-2.8v-.293a4.339,4.339,0,0,1,.967-2.915,3.287,3.287,0,0,1,2.659-1.128,3.077,3.077,0,0,1,2.45.978,3.864,3.864,0,0,1,.853,2.633v1.106H93.733l-.022.044a2.141,2.141,0,0,0,.494,1.318,1.655,1.655,0,0,0,1.315.505,4.4,4.4,0,0,0,1.219-.146,4.976,4.976,0,0,0,1.036-.447l.579,1.318a3.97,3.97,0,0,1-1.289.652A5.717,5.717,0,0,1,95.293,182.154Zm-.139-6.577a1.188,1.188,0,0,0-.992.443,2.223,2.223,0,0,0-.421,1.176l.015.037h2.607v-.161a1.851,1.851,0,0,0-.286-1.095A1.057,1.057,0,0,0,95.154,175.577Zm6.8,6.423H99.812V170.574h2.139Zm5.193.154a3.566,3.566,0,0,1-2.769-1.088,3.986,3.986,0,0,1-1-2.8v-.293a4.339,4.339,0,0,1,.967-2.915A3.287,3.287,0,0,1,107,173.929a3.077,3.077,0,0,1,2.45.978,3.864,3.864,0,0,1,.853,2.633v1.106h-4.724l-.022.044a2.141,2.141,0,0,0,.494,1.318,1.655,1.655,0,0,0,1.315.505,4.4,4.4,0,0,0,1.219-.146,4.976,4.976,0,0,0,1.036-.447l.579,1.318a3.97,3.97,0,0,1-1.289.652A5.717,5.717,0,0,1,107.144,182.154ZM107,175.577a1.188,1.188,0,0,0-.992.443,2.223,2.223,0,0,0-.421,1.176l.015.037h2.607v-.161a1.851,1.851,0,0,0-.286-1.095A1.057,1.057,0,0,0,107,175.577Zm7.859,4.937a1.19,1.19,0,0,0,.886-.333,1.21,1.21,0,0,0,.33-.89h1.948l.015.044a2.48,2.48,0,0,1-.894,2.01,3.342,3.342,0,0,1-2.285.809,3.377,3.377,0,0,1-2.717-1.124,4.273,4.273,0,0,1-.959-2.875v-.22a4.3,4.3,0,0,1,.956-2.875,3.347,3.347,0,0,1,2.706-1.132,3.268,3.268,0,0,1,2.336.835,2.79,2.79,0,0,1,.857,2.2l-.015.044h-1.948a1.581,1.581,0,0,0-.326-1.022,1.1,1.1,0,0,0-.9-.406,1.221,1.221,0,0,0-1.176.663,3.635,3.635,0,0,0-.348,1.7v.22a3.622,3.622,0,0,0,.348,1.707A1.237,1.237,0,0,0,114.864,180.513Zm6.987-8.379v1.941h1.34v1.5h-1.34v4.036a.921.921,0,0,0,.194.659.681.681,0,0,0,.509.2,2.042,2.042,0,0,0,.293-.018,2.467,2.467,0,0,0,.286-.062l.176,1.545a4.33,4.33,0,0,1-.626.165,3.733,3.733,0,0,1-.663.055,2.279,2.279,0,0,1-1.7-.608,2.666,2.666,0,0,1-.6-1.926v-4.043h-1.157v-1.5h1.157v-1.941ZM126.758,182h-2.139v-7.925h2.139Zm0-9.822h-2.139v-1.6h2.139Zm1.428,5.786a4.253,4.253,0,0,1,.989-2.9,3.447,3.447,0,0,1,2.739-1.132,3.483,3.483,0,0,1,2.754,1.128,4.23,4.23,0,0,1,1,2.908v.154a4.237,4.237,0,0,1-.992,2.911,3.917,3.917,0,0,1-5.493,0,4.237,4.237,0,0,1-.992-2.911Zm2.131.154a3.448,3.448,0,0,0,.381,1.74,1.463,1.463,0,0,0,2.443,0,3.425,3.425,0,0,0,.385-1.736v-.154a3.39,3.39,0,0,0-.388-1.721,1.313,1.313,0,0,0-1.223-.667,1.3,1.3,0,0,0-1.212.67,3.42,3.42,0,0,0-.385,1.718Zm8.621-4.043.1,1.135a2.9,2.9,0,0,1,.974-.945,2.529,2.529,0,0,1,1.3-.337,2.356,2.356,0,0,1,1.875.773,3.663,3.663,0,0,1,.674,2.443V182h-2.146v-4.849a1.9,1.9,0,0,0-.3-1.2,1.093,1.093,0,0,0-.89-.355,1.867,1.867,0,0,0-.839.179,1.637,1.637,0,0,0-.6.494V182h-2.139v-7.925Zm10.854,3.977v-.044L145.5,176.5v-1.97l6.387,2.681v1.663l-6.387,2.688v-1.978Z" transform="translate(-2838 -5728)" fill="#636363"/>
        <path id="Trazado_156974" data-name="Trazado 156974" d="M22.735,9.972v.044L26.961,11.5v1.992l-6.313-2.688V9.144l6.313-2.681V8.456ZM33.384,14a4.5,4.5,0,0,1-.2-.571,3.974,3.974,0,0,1-.121-.615,2.931,2.931,0,0,1-.872.959,2.185,2.185,0,0,1-1.289.381,2.676,2.676,0,0,1-1.919-.641,2.3,2.3,0,0,1-.674-1.747,2.09,2.09,0,0,1,.9-1.805,4.481,4.481,0,0,1,2.618-.641h1.2V8.69a1.233,1.233,0,0,0-.3-.886,1.179,1.179,0,0,0-.894-.315,1.162,1.162,0,0,0-.8.253.882.882,0,0,0-.282.692H28.689l-.015-.044a2.01,2.01,0,0,1,.875-1.732,3.8,3.8,0,0,1,2.421-.729,3.548,3.548,0,0,1,2.311.718A2.5,2.5,0,0,1,35.164,8.7v3.274a6.192,6.192,0,0,0,.084,1.047,5.256,5.256,0,0,0,.267.974Zm-1.956-1.428a1.822,1.822,0,0,0,1-.278,1.5,1.5,0,0,0,.6-.645V10.528h-1.2a1.424,1.424,0,0,0-1.029.337,1.107,1.107,0,0,0-.348.828.826.826,0,0,0,.26.641A1.029,1.029,0,0,0,31.428,12.572Zm9.624-.769a.738.738,0,0,0-.341-.6,3.459,3.459,0,0,0-1.263-.443,5.039,5.039,0,0,1-2.113-.842,1.84,1.84,0,0,1-.721-1.531,2.183,2.183,0,0,1,.864-1.736,3.485,3.485,0,0,1,2.3-.718,3.761,3.761,0,0,1,2.406.718,2.1,2.1,0,0,1,.868,1.787l-.015.044H40.972a1.037,1.037,0,0,0-.308-.776,1.438,1.438,0,0,0-1.7-.044.8.8,0,0,0-.3.63.711.711,0,0,0,.311.6A3.465,3.465,0,0,0,40.24,9.3a5.141,5.141,0,0,1,2.172.861,1.888,1.888,0,0,1,.714,1.564,2.092,2.092,0,0,1-.916,1.75,3.952,3.952,0,0,1-2.417.681,3.673,3.673,0,0,1-2.5-.8,2.242,2.242,0,0,1-.875-1.827l.015-.044h1.956a1.111,1.111,0,0,0,.417.923,1.724,1.724,0,0,0,1.033.286,1.469,1.469,0,0,0,.9-.238A.772.772,0,0,0,41.052,11.8Zm5.7,2.2H44.612V6.075h2.139Zm0-9.822H44.612v-1.6h2.139ZM48.179,10.1a5.15,5.15,0,0,1,.809-3.025,2.628,2.628,0,0,1,2.281-1.15,2.219,2.219,0,0,1,1.069.256,2.573,2.573,0,0,1,.835.732V2.574H55.32V14H53.5l-.183-.974a2.649,2.649,0,0,1-.886.839,2.343,2.343,0,0,1-1.172.289,2.68,2.68,0,0,1-2.267-1.069,4.566,4.566,0,0,1-.809-2.827Zm2.131.154a3.228,3.228,0,0,0,.352,1.637,1.224,1.224,0,0,0,1.143.6,1.664,1.664,0,0,0,.806-.187,1.49,1.49,0,0,0,.564-.546V8.382a1.646,1.646,0,0,0-.56-.582,1.49,1.49,0,0,0-.795-.209,1.207,1.207,0,0,0-1.146.7A3.932,3.932,0,0,0,50.31,10.1Zm10.1,3.9a3.566,3.566,0,0,1-2.769-1.088,3.986,3.986,0,0,1-1-2.8V9.972a4.339,4.339,0,0,1,.967-2.915,3.287,3.287,0,0,1,2.659-1.128,3.077,3.077,0,0,1,2.45.978,3.864,3.864,0,0,1,.853,2.633v1.106H58.85l-.022.044a2.141,2.141,0,0,0,.494,1.318,1.655,1.655,0,0,0,1.315.505,4.4,4.4,0,0,0,1.219-.146,4.976,4.976,0,0,0,1.036-.447l.579,1.318a3.97,3.97,0,0,1-1.289.652A5.717,5.717,0,0,1,60.41,14.154Zm-.139-6.577a1.188,1.188,0,0,0-.992.443A2.223,2.223,0,0,0,58.858,9.2l.015.037H61.48V9.071a1.851,1.851,0,0,0-.286-1.095A1.057,1.057,0,0,0,60.271,7.577Zm8.892,2.476v-.044L64.871,8.5V6.529L71.258,9.21v1.663l-6.387,2.688V11.583ZM19.713,177.972v.044l4.226,1.487v1.992l-6.313-2.688v-1.663l6.313-2.681v1.992Zm7.134,4.944h-2.08l3.911-11.58h2.08ZM36.405,182a4.5,4.5,0,0,1-.2-.571,3.974,3.974,0,0,1-.121-.615,2.931,2.931,0,0,1-.872.959,2.185,2.185,0,0,1-1.289.381A2.676,2.676,0,0,1,32,181.513a2.3,2.3,0,0,1-.674-1.747,2.09,2.09,0,0,1,.9-1.805,4.481,4.481,0,0,1,2.618-.641h1.2v-.63a1.233,1.233,0,0,0-.3-.886,1.179,1.179,0,0,0-.894-.315,1.162,1.162,0,0,0-.8.253.882.882,0,0,0-.282.692H31.71l-.015-.044a2.01,2.01,0,0,1,.875-1.732,3.8,3.8,0,0,1,2.421-.729,3.548,3.548,0,0,1,2.311.718,2.5,2.5,0,0,1,.883,2.058v3.274a6.192,6.192,0,0,0,.084,1.047,5.256,5.256,0,0,0,.267.974Zm-1.956-1.428a1.822,1.822,0,0,0,1-.278,1.5,1.5,0,0,0,.6-.645v-1.121h-1.2a1.424,1.424,0,0,0-1.029.337,1.107,1.107,0,0,0-.348.828.826.826,0,0,0,.26.641A1.029,1.029,0,0,0,34.45,180.572Zm9.624-.769a.738.738,0,0,0-.341-.6,3.459,3.459,0,0,0-1.263-.443,5.039,5.039,0,0,1-2.113-.842,1.84,1.84,0,0,1-.721-1.531,2.183,2.183,0,0,1,.864-1.736,3.485,3.485,0,0,1,2.3-.718,3.761,3.761,0,0,1,2.406.718,2.1,2.1,0,0,1,.868,1.787l-.015.044H43.993a1.037,1.037,0,0,0-.308-.776,1.438,1.438,0,0,0-1.7-.044.8.8,0,0,0-.3.63.711.711,0,0,0,.311.6,3.465,3.465,0,0,0,1.263.414,5.141,5.141,0,0,1,2.172.861,1.888,1.888,0,0,1,.714,1.564,2.092,2.092,0,0,1-.916,1.75,3.952,3.952,0,0,1-2.417.681,3.673,3.673,0,0,1-2.5-.8,2.242,2.242,0,0,1-.875-1.827l.015-.044h1.956a1.111,1.111,0,0,0,.417.923,1.724,1.724,0,0,0,1.033.286,1.469,1.469,0,0,0,.9-.238A.772.772,0,0,0,44.074,179.8Zm5.7,2.2H47.633v-7.925h2.139Zm0-9.822H47.633v-1.6h2.139ZM51.2,178.1a5.15,5.15,0,0,1,.809-3.025,2.628,2.628,0,0,1,2.281-1.15,2.219,2.219,0,0,1,1.069.256,2.573,2.573,0,0,1,.835.732v-4.343h2.146V182H56.518l-.183-.974a2.649,2.649,0,0,1-.886.839,2.343,2.343,0,0,1-1.172.289,2.68,2.68,0,0,1-2.267-1.069,4.566,4.566,0,0,1-.809-2.827Zm2.131.154a3.228,3.228,0,0,0,.352,1.637,1.224,1.224,0,0,0,1.143.6,1.664,1.664,0,0,0,.806-.187,1.49,1.49,0,0,0,.564-.546v-3.376a1.646,1.646,0,0,0-.56-.582,1.49,1.49,0,0,0-.795-.209,1.207,1.207,0,0,0-1.146.7,3.932,3.932,0,0,0-.363,1.816Zm10.1,3.9a3.566,3.566,0,0,1-2.769-1.088,3.986,3.986,0,0,1-1-2.8v-.293a4.339,4.339,0,0,1,.967-2.915,3.287,3.287,0,0,1,2.659-1.128,3.077,3.077,0,0,1,2.45.978,3.864,3.864,0,0,1,.853,2.633v1.106H61.872l-.022.044a2.141,2.141,0,0,0,.494,1.318,1.655,1.655,0,0,0,1.315.505,4.4,4.4,0,0,0,1.219-.146,4.976,4.976,0,0,0,1.036-.447l.579,1.318a3.97,3.97,0,0,1-1.289.652A5.717,5.717,0,0,1,63.432,182.154Zm-.139-6.577a1.188,1.188,0,0,0-.992.443,2.223,2.223,0,0,0-.421,1.176l.015.037H64.5v-.161a1.851,1.851,0,0,0-.286-1.095A1.057,1.057,0,0,0,63.292,175.577Zm8.892,2.476v-.044L67.892,176.5v-1.97l6.387,2.681v1.663l-6.387,2.688v-1.978Z" transform="translate(-2610 -5728)" fill="#636363"/>
      </g>
    </g>
  </g>
</svg>
