<svg xmlns="http://www.w3.org/2000/svg" width="81.869" height="62.591" viewBox="0 0 81.869 62.591">
  <g id="Grupo_70140" data-name="Grupo 70140" transform="translate(-583.031 -5751.137)">
    <rect id="Rectángulo_8056" data-name="Rectángulo 8056" width="60.743" height="40.263" transform="translate(593.865 5758.124)" fill="#e3f8f2"/>
    <path id="Trazado_156549" data-name="Trazado 156549" d="M2065,101.944a13.611,13.611,0,1,0-13.611,13.611A13.611,13.611,0,0,0,2065,101.944" transform="translate(-1426.943 5676.312)" fill="#fff"/>
    <path id="Trazado_156552" data-name="Trazado 156552" d="M1944.451,55.249H1940.9a8.07,8.07,0,0,0,1.931-5.242V11.95a8.1,8.1,0,0,0-8.09-8.089h-59.886a8.1,8.1,0,0,0-8.09,8.09V50.007a8.082,8.082,0,0,0,1.942,5.242h-3.564a1.279,1.279,0,0,0-1.279,1.279,9.936,9.936,0,0,0,9.924,9.924h62.02a9.936,9.936,0,0,0,9.924-9.924A1.279,1.279,0,0,0,1944.451,55.249Zm-75.129-5.242V11.95a5.537,5.537,0,0,1,5.531-5.531h59.886a5.538,5.538,0,0,1,5.531,5.532V50.007a5.535,5.535,0,0,1-3.772,5.242h-63.4A5.556,5.556,0,0,1,1869.322,50.007Zm49.487,7.8c-.424.941-1.05,1.565-1.635,1.565h-24.755c-.587,0-1.211-.623-1.635-1.565Zm17,6.087h-62.02a7.379,7.379,0,0,1-7.254-6.087h21.531c.733,2.513,2.424,4.123,4.356,4.123h24.755c1.928,0,3.623-1.612,4.355-4.123h21.532a7.378,7.378,0,0,1-7.255,6.087Zm-1.067-53.7h-59.886a1.779,1.779,0,0,0-1.756,1.756V50.007a1.78,1.78,0,0,0,1.756,1.756h59.886a1.78,1.78,0,0,0,1.756-1.756V11.951a1.779,1.779,0,0,0-1.756-1.756m-.8,39.01h-58.281V12.753h58.281ZM1904.8,45.735a14.756,14.756,0,1,0-14.756-14.756h0A14.773,14.773,0,0,0,1904.8,45.735m0-26.954a12.2,12.2,0,1,1-12.2,12.2,12.2,12.2,0,0,1,12.2-12.2m-4.009,19.907a1.279,1.279,0,0,0,1.279,0l11.434-6.6a1.279,1.279,0,0,0,0-2.216l-11.434-6.6a1.279,1.279,0,0,0-1.919,1.108v13.2a1.279,1.279,0,0,0,.64,1.108Zm1.919-12.1,7.6,4.386-7.6,4.385Z" transform="translate(-1280.832 5747.276)"/>
  </g>
</svg>
