<svg xmlns="http://www.w3.org/2000/svg" xmlns:xlink="http://www.w3.org/1999/xlink" width="820" height="523" viewBox="0 0 820 523">
  <defs>
    <linearGradient id="linear-gradient" x1="0.5" x2="0.5" y2="1" gradientUnits="objectBoundingBox">
      <stop offset="0" stop-color="#e3f8f2"/>
      <stop offset="0.659" stop-color="#fefffe"/>
      <stop offset="1" stop-color="#fff"/>
    </linearGradient>
    <linearGradient id="linear-gradient-2" x1="0.378" y1="0.354" x2="0" y2="0.036" gradientUnits="objectBoundingBox">
      <stop offset="0" stop-color="#95ebd1" stop-opacity="0"/>
      <stop offset="1" stop-color="#607b82" stop-opacity="0.757"/>
    </linearGradient>
    <linearGradient id="linear-gradient-3" x1="0.378" y1="0.646" x2="0" y2="0.964" xlink:href="#linear-gradient-2"/>
  </defs>
  <g id="Grupo_70323" data-name="Grupo 70323" transform="translate(3282 5158)">
    <g id="Grupo_69722" data-name="Grupo 69722" transform="translate(-3672 -8338)">
      <path id="Trazado_156192" data-name="Trazado 156192" d="M0,0H820V523H0Z" transform="translate(390 3180)" fill="url(#linear-gradient)"/>
      <path id="Intersección_27" data-name="Intersección 27" d="M0,133.964H176.448V0H0Z" transform="translate(1209.964 3180) rotate(90)" fill="url(#linear-gradient-2)"/>
      <path id="Intersección_28" data-name="Intersección 28" d="M0,0H176.448V133.964H0Z" transform="translate(523.964 3180) rotate(90)" fill="url(#linear-gradient-3)"/>
    </g>
    <rect id="Rectángulo_7861" data-name="Rectángulo 7861" width="385" height="456" transform="translate(-3064 -5124)" fill="#e0e0e0"/>
    <g id="Grupo_69726" data-name="Grupo 69726" transform="translate(-1262.895 1178)">
      <rect id="Rectángulo_7830" data-name="Rectángulo 7830" width="210" height="11" transform="translate(-1669.105 -6231)" fill="#fff"/>
      <rect id="Rectángulo_7834" data-name="Rectángulo 7834" width="75" height="20" transform="translate(-1755.105 -6240)" fill="#fff"/>
      <rect id="Rectángulo_7835" data-name="Rectángulo 7835" width="75" height="10" transform="translate(-1755.105 -6255)" fill="#fff"/>
      <rect id="Rectángulo_7829" data-name="Rectángulo 7829" width="297" height="62" transform="translate(-1756.105 -6205)" fill="#fff"/>
      <g id="Rectángulo_7841" data-name="Rectángulo 7841" transform="translate(-1756.105 -5995)" fill="rgba(255,255,255,0.45)" stroke="#fff" stroke-width="2">
        <rect width="297" height="62" stroke="none"/>
        <rect x="1" y="1" width="295" height="60" fill="none"/>
      </g>
      <rect id="Rectángulo_7836" data-name="Rectángulo 7836" width="144" height="62" transform="translate(-1756.105 -6135)" fill="#fff"/>
      <g id="Rectángulo_7838" data-name="Rectángulo 7838" transform="translate(-1756.105 -6066)" fill="rgba(255,255,255,0.45)" stroke="#fff" stroke-width="2">
        <rect width="90" height="62" stroke="none"/>
        <rect x="1" y="1" width="88" height="60" fill="none"/>
      </g>
      <g id="Rectángulo_7839" data-name="Rectángulo 7839" transform="translate(-1652.105 -6066)" fill="rgba(255,255,255,0.45)" stroke="#fff" stroke-width="2">
        <rect width="89" height="62" stroke="none"/>
        <rect x="1" y="1" width="87" height="60" fill="none"/>
      </g>
      <g id="Rectángulo_7840" data-name="Rectángulo 7840" transform="translate(-1549.105 -6066)" fill="rgba(255,255,255,0.45)" stroke="#fff" stroke-width="2">
        <rect width="90" height="62" stroke="none"/>
        <rect x="1" y="1" width="88" height="60" fill="none"/>
      </g>
      <rect id="Rectángulo_7837" data-name="Rectángulo 7837" width="143" height="62" transform="translate(-1602.105 -6135)" fill="#fff"/>
      <rect id="Rectángulo_7826" data-name="Rectángulo 7826" width="86" height="20" transform="translate(-1756.105 -5913)" fill="#fff"/>
      <rect id="Rectángulo_7832" data-name="Rectángulo 7832" width="86" height="20" transform="translate(-1650.105 -5913)" fill="#fff"/>
      <rect id="Rectángulo_7833" data-name="Rectángulo 7833" width="86" height="20" transform="translate(-1545.105 -5913)" fill="#fff"/>
      <path id="Trazado_156981" data-name="Trazado 156981" d="M30.564,14H28.425V9.569H24.082V14H21.943V3.336h2.139V7.921h4.343V3.336h2.139Zm5.237.154a3.566,3.566,0,0,1-2.769-1.088,3.986,3.986,0,0,1-1-2.8V9.972A4.339,4.339,0,0,1,33,7.057a3.287,3.287,0,0,1,2.659-1.128,3.077,3.077,0,0,1,2.45.978,3.864,3.864,0,0,1,.853,2.633v1.106H34.241l-.022.044a2.141,2.141,0,0,0,.494,1.318,1.655,1.655,0,0,0,1.315.505,4.4,4.4,0,0,0,1.219-.146,4.976,4.976,0,0,0,1.036-.447l.579,1.318a3.97,3.97,0,0,1-1.289.652A5.717,5.717,0,0,1,35.8,14.154Zm-.139-6.577a1.188,1.188,0,0,0-.992.443A2.223,2.223,0,0,0,34.248,9.2l.015.037H36.87V9.071a1.851,1.851,0,0,0-.286-1.095A1.057,1.057,0,0,0,35.662,7.577ZM44.883,14a4.5,4.5,0,0,1-.2-.571,3.974,3.974,0,0,1-.121-.615,2.931,2.931,0,0,1-.872.959,2.185,2.185,0,0,1-1.289.381,2.676,2.676,0,0,1-1.919-.641,2.3,2.3,0,0,1-.674-1.747,2.09,2.09,0,0,1,.9-1.805,4.481,4.481,0,0,1,2.618-.641h1.2V8.69a1.233,1.233,0,0,0-.3-.886,1.179,1.179,0,0,0-.894-.315,1.162,1.162,0,0,0-.8.253.882.882,0,0,0-.282.692H40.188l-.015-.044a2.01,2.01,0,0,1,.875-1.732,3.8,3.8,0,0,1,2.421-.729,3.548,3.548,0,0,1,2.311.718A2.5,2.5,0,0,1,46.663,8.7v3.274a6.192,6.192,0,0,0,.084,1.047,5.256,5.256,0,0,0,.267.974Zm-1.956-1.428a1.822,1.822,0,0,0,1-.278,1.5,1.5,0,0,0,.6-.645V10.528h-1.2a1.424,1.424,0,0,0-1.029.337,1.107,1.107,0,0,0-.348.828.826.826,0,0,0,.26.641A1.029,1.029,0,0,0,42.927,12.572Zm5.01-2.468a5.15,5.15,0,0,1,.809-3.025,2.628,2.628,0,0,1,2.281-1.15,2.219,2.219,0,0,1,1.069.256,2.573,2.573,0,0,1,.835.732V2.574h2.146V14H53.254l-.183-.974a2.649,2.649,0,0,1-.886.839,2.343,2.343,0,0,1-1.172.289,2.68,2.68,0,0,1-2.267-1.069,4.566,4.566,0,0,1-.809-2.827Zm2.131.154a3.228,3.228,0,0,0,.352,1.637,1.224,1.224,0,0,0,1.143.6,1.664,1.664,0,0,0,.806-.187,1.49,1.49,0,0,0,.564-.546V8.382a1.646,1.646,0,0,0-.56-.582,1.49,1.49,0,0,0-.795-.209,1.207,1.207,0,0,0-1.146.7,3.932,3.932,0,0,0-.363,1.816Zm10.1,3.9A3.566,3.566,0,0,1,57.4,13.066a3.986,3.986,0,0,1-1-2.8V9.972a4.339,4.339,0,0,1,.967-2.915,3.287,3.287,0,0,1,2.659-1.128,3.077,3.077,0,0,1,2.45.978,3.864,3.864,0,0,1,.853,2.633v1.106H58.608l-.022.044a2.141,2.141,0,0,0,.494,1.318,1.655,1.655,0,0,0,1.315.505,4.4,4.4,0,0,0,1.219-.146,4.976,4.976,0,0,0,1.036-.447l.579,1.318a3.97,3.97,0,0,1-1.289.652A5.717,5.717,0,0,1,60.168,14.154Zm-.139-6.577a1.188,1.188,0,0,0-.992.443A2.223,2.223,0,0,0,58.616,9.2l.015.037h2.607V9.071a1.851,1.851,0,0,0-.286-1.095A1.057,1.057,0,0,0,60.029,7.577Zm8.716.337-.784-.022a1.424,1.424,0,0,0-.784.2,1.253,1.253,0,0,0-.469.557V14H64.578V6.075h1.985l.1,1.172a2.5,2.5,0,0,1,.721-.97A1.685,1.685,0,0,1,68.7,5.954q.135.026.275.062Z" transform="translate(-1893.105 -6241)" fill="#636363"/>
      <path id="Trazado_156982" data-name="Trazado 156982" d="M68.911,10.47l.015.044a3.338,3.338,0,0,1-1.04,2.673,4.241,4.241,0,0,1-2.952.967,4.089,4.089,0,0,1-3.1-1.234,4.427,4.427,0,0,1-1.179-3.19V7.613a4.508,4.508,0,0,1,1.15-3.19,3.921,3.921,0,0,1,3.018-1.241,4.5,4.5,0,0,1,3.047.952A3.278,3.278,0,0,1,68.94,6.815l-.015.044h-2.08a2.1,2.1,0,0,0-.494-1.527,2.062,2.062,0,0,0-1.527-.5,1.724,1.724,0,0,0-1.5.773,3.417,3.417,0,0,0-.538,2V9.73a3.317,3.317,0,0,0,.568,2.007,1.845,1.845,0,0,0,1.578.776,1.878,1.878,0,0,0,1.432-.5,2.183,2.183,0,0,0,.472-1.542Zm1.055-.505a4.253,4.253,0,0,1,.989-2.9,3.447,3.447,0,0,1,2.739-1.132,3.483,3.483,0,0,1,2.754,1.128,4.23,4.23,0,0,1,1,2.908v.154a4.237,4.237,0,0,1-.992,2.911,3.917,3.917,0,0,1-5.493,0,4.237,4.237,0,0,1-.992-2.911Zm2.131.154a3.448,3.448,0,0,0,.381,1.74,1.463,1.463,0,0,0,2.443,0,3.425,3.425,0,0,0,.385-1.736V9.964a3.39,3.39,0,0,0-.388-1.721,1.313,1.313,0,0,0-1.223-.667,1.3,1.3,0,0,0-1.212.67A3.42,3.42,0,0,0,72.1,9.964Zm8.621-4.043.1,1.135a2.9,2.9,0,0,1,.974-.945,2.529,2.529,0,0,1,1.3-.337,2.356,2.356,0,0,1,1.875.773,3.663,3.663,0,0,1,.674,2.443V14H83.486V9.151a1.9,1.9,0,0,0-.3-1.2,1.093,1.093,0,0,0-.89-.355,1.867,1.867,0,0,0-.839.179,1.637,1.637,0,0,0-.6.494V14H78.725V6.075Zm9.075-1.941V6.075h1.34v1.5h-1.34v4.036a.921.921,0,0,0,.194.659.681.681,0,0,0,.509.2,2.042,2.042,0,0,0,.293-.018,2.467,2.467,0,0,0,.286-.062l.176,1.545a4.33,4.33,0,0,1-.626.165,3.733,3.733,0,0,1-.663.055,2.279,2.279,0,0,1-1.7-.608,2.666,2.666,0,0,1-.6-1.926V7.577H86.5v-1.5h1.157V4.134Zm6.094,10.02a3.566,3.566,0,0,1-2.769-1.088,3.986,3.986,0,0,1-1-2.8V9.972a4.339,4.339,0,0,1,.967-2.915,3.287,3.287,0,0,1,2.659-1.128,3.077,3.077,0,0,1,2.45.978A3.864,3.864,0,0,1,99.05,9.54v1.106H94.326l-.022.044a2.141,2.141,0,0,0,.494,1.318,1.655,1.655,0,0,0,1.315.505,4.4,4.4,0,0,0,1.219-.146,4.976,4.976,0,0,0,1.036-.447l.579,1.318a3.97,3.97,0,0,1-1.289.652A5.717,5.717,0,0,1,95.886,14.154Zm-.139-6.577a1.188,1.188,0,0,0-.992.443A2.223,2.223,0,0,0,94.333,9.2l.015.037h2.607V9.071a1.851,1.851,0,0,0-.286-1.095A1.057,1.057,0,0,0,95.747,7.577Zm6.5-1.5.1,1.135a2.9,2.9,0,0,1,.974-.945,2.529,2.529,0,0,1,1.3-.337,2.356,2.356,0,0,1,1.875.773,3.663,3.663,0,0,1,.674,2.443V14h-2.146V9.151a1.9,1.9,0,0,0-.3-1.2,1.093,1.093,0,0,0-.89-.355,1.867,1.867,0,0,0-.839.179,1.637,1.637,0,0,0-.6.494V14h-2.139V6.075Zm9.946,8.079a3.566,3.566,0,0,1-2.769-1.088,3.986,3.986,0,0,1-1-2.8V9.972a4.339,4.339,0,0,1,.967-2.915,3.287,3.287,0,0,1,2.659-1.128,3.077,3.077,0,0,1,2.45.978,3.864,3.864,0,0,1,.853,2.633v1.106h-4.724l-.022.044a2.141,2.141,0,0,0,.494,1.318,1.655,1.655,0,0,0,1.315.505,4.4,4.4,0,0,0,1.219-.146,4.976,4.976,0,0,0,1.036-.447l.579,1.318a3.97,3.97,0,0,1-1.289.652A5.717,5.717,0,0,1,112.2,14.154Zm-.139-6.577a1.188,1.188,0,0,0-.992.443,2.223,2.223,0,0,0-.421,1.176l.015.037h2.607V9.071a1.851,1.851,0,0,0-.286-1.095A1.057,1.057,0,0,0,112.058,7.577Zm4.219,2.527a5.15,5.15,0,0,1,.809-3.025,2.628,2.628,0,0,1,2.281-1.15,2.219,2.219,0,0,1,1.069.256,2.573,2.573,0,0,1,.835.732V2.574h2.146V14h-1.824l-.183-.974a2.649,2.649,0,0,1-.886.839,2.343,2.343,0,0,1-1.172.289,2.68,2.68,0,0,1-2.267-1.069,4.566,4.566,0,0,1-.809-2.827Zm2.131.154a3.228,3.228,0,0,0,.352,1.637,1.224,1.224,0,0,0,1.143.6,1.664,1.664,0,0,0,.806-.187,1.49,1.49,0,0,0,.564-.546V8.382a1.646,1.646,0,0,0-.56-.582,1.49,1.49,0,0,0-.795-.209,1.207,1.207,0,0,0-1.146.7,3.932,3.932,0,0,0-.363,1.816Zm6.335-.293a4.253,4.253,0,0,1,.989-2.9,3.447,3.447,0,0,1,2.739-1.132,3.483,3.483,0,0,1,2.754,1.128,4.23,4.23,0,0,1,1,2.908v.154a4.237,4.237,0,0,1-.992,2.911,3.917,3.917,0,0,1-5.493,0,4.237,4.237,0,0,1-.992-2.911Zm2.131.154a3.448,3.448,0,0,0,.381,1.74,1.463,1.463,0,0,0,2.443,0,3.425,3.425,0,0,0,.385-1.736V9.964a3.39,3.39,0,0,0-.388-1.721,1.313,1.313,0,0,0-1.223-.667,1.3,1.3,0,0,0-1.212.67,3.42,3.42,0,0,0-.385,1.718Zm10.833-2.2-.784-.022a1.424,1.424,0,0,0-.784.2,1.253,1.253,0,0,0-.469.557V14H133.54V6.075h1.985l.1,1.172a2.5,2.5,0,0,1,.721-.97,1.685,1.685,0,0,1,1.318-.322q.135.026.275.062Z" transform="translate(-1592.105 -6285)" fill="#607b82"/>
      <path id="Trazado_156980" data-name="Trazado 156980" d="M26.122,14V7.577H24.943v-1.5h1.179V5.2a2.68,2.68,0,0,1,.769-2.054,3.036,3.036,0,0,1,2.161-.721,3.908,3.908,0,0,1,.553.04q.282.04.619.114L30.04,4.164q-.176-.029-.341-.051a2.947,2.947,0,0,0-.385-.022,1.027,1.027,0,0,0-.787.286,1.156,1.156,0,0,0-.267.82v.879h1.523v1.5H28.26V14Zm4.343-4.036a4.253,4.253,0,0,1,.989-2.9,3.447,3.447,0,0,1,2.739-1.132,3.483,3.483,0,0,1,2.754,1.128,4.23,4.23,0,0,1,1,2.908v.154a4.237,4.237,0,0,1-.992,2.911,3.469,3.469,0,0,1-2.743,1.124,3.477,3.477,0,0,1-2.75-1.124,4.237,4.237,0,0,1-.992-2.911Zm2.131.154a3.448,3.448,0,0,0,.381,1.74,1.463,1.463,0,0,0,2.443,0,3.425,3.425,0,0,0,.385-1.736V9.964a3.39,3.39,0,0,0-.388-1.721,1.313,1.313,0,0,0-1.223-.667,1.3,1.3,0,0,0-1.212.67A3.42,3.42,0,0,0,32.6,9.964Zm6.335-.154a4.253,4.253,0,0,1,.989-2.9A3.447,3.447,0,0,1,42.66,5.929a3.483,3.483,0,0,1,2.754,1.128,4.23,4.23,0,0,1,1,2.908v.154a4.237,4.237,0,0,1-.992,2.911,3.917,3.917,0,0,1-5.493,0,4.237,4.237,0,0,1-.992-2.911Zm2.131.154a3.448,3.448,0,0,0,.381,1.74,1.463,1.463,0,0,0,2.443,0,3.425,3.425,0,0,0,.385-1.736V9.964a3.39,3.39,0,0,0-.388-1.721,1.313,1.313,0,0,0-1.223-.667,1.3,1.3,0,0,0-1.212.67,3.42,3.42,0,0,0-.385,1.718Zm9.229-5.984V6.075h1.34v1.5h-1.34v4.036a.921.921,0,0,0,.194.659.681.681,0,0,0,.509.2,2.042,2.042,0,0,0,.293-.018,2.467,2.467,0,0,0,.286-.062l.176,1.545a4.33,4.33,0,0,1-.626.165,3.733,3.733,0,0,1-.663.055,2.279,2.279,0,0,1-1.7-.608,2.666,2.666,0,0,1-.6-1.926V7.577H47v-1.5H48.16V4.134Zm6.094,10.02a3.566,3.566,0,0,1-2.769-1.088,3.986,3.986,0,0,1-1-2.8V9.972a4.339,4.339,0,0,1,.967-2.915,3.287,3.287,0,0,1,2.659-1.128,3.077,3.077,0,0,1,2.45.978A3.864,3.864,0,0,1,59.55,9.54v1.106H54.825l-.022.044a2.141,2.141,0,0,0,.494,1.318,1.655,1.655,0,0,0,1.315.505,4.4,4.4,0,0,0,1.219-.146,4.976,4.976,0,0,0,1.036-.447l.579,1.318a3.97,3.97,0,0,1-1.289.652A5.717,5.717,0,0,1,56.385,14.154Zm-.139-6.577a1.188,1.188,0,0,0-.992.443A2.223,2.223,0,0,0,54.833,9.2l.015.037h2.607V9.071a1.851,1.851,0,0,0-.286-1.095A1.057,1.057,0,0,0,56.246,7.577Zm8.716.337-.784-.022a1.424,1.424,0,0,0-.784.2,1.253,1.253,0,0,0-.469.557V14H60.795V6.075H62.78l.1,1.172a2.5,2.5,0,0,1,.721-.97,1.685,1.685,0,0,1,1.318-.322q.135.026.275.062Z" transform="translate(-1893.105 -5914)" fill="#636363"/>
      <g id="Rectángulo_7831" data-name="Rectángulo 7831" transform="translate(-1763.105 -6265)" fill="none" stroke="#607b82" stroke-width="1">
        <rect width="309" height="384" stroke="none"/>
        <rect x="0.5" y="0.5" width="308" height="383" fill="none"/>
      </g>
      <path id="Trazado_156190" data-name="Trazado 156190" d="M-4809.461-8170.31h518.269" transform="translate(2939.921 1957.994)" fill="none" stroke="#eb9595" stroke-width="3" stroke-dasharray="4"/>
      <path id="Trazado_156191" data-name="Trazado 156191" d="M-4809.461-8170.31h518.269" transform="translate(2939.921 2249.783)" fill="none" stroke="#eb9595" stroke-width="3" stroke-dasharray="4"/>
      <path id="Trazado_156979" data-name="Trazado 156979" d="M19.5,10.47l.015.044a3.338,3.338,0,0,1-1.04,2.673,4.241,4.241,0,0,1-2.952.967,4.089,4.089,0,0,1-3.1-1.234A4.427,4.427,0,0,1,11.25,9.73V7.613a4.508,4.508,0,0,1,1.15-3.19,3.921,3.921,0,0,1,3.018-1.241,4.5,4.5,0,0,1,3.047.952,3.278,3.278,0,0,1,1.069,2.681l-.015.044h-2.08a2.1,2.1,0,0,0-.494-1.527,2.062,2.062,0,0,0-1.527-.5,1.724,1.724,0,0,0-1.5.773,3.417,3.417,0,0,0-.538,2V9.73a3.317,3.317,0,0,0,.568,2.007,1.845,1.845,0,0,0,1.578.776,1.878,1.878,0,0,0,1.432-.5,2.183,2.183,0,0,0,.472-1.542Zm1.055-.505a4.253,4.253,0,0,1,.989-2.9,3.447,3.447,0,0,1,2.739-1.132,3.483,3.483,0,0,1,2.754,1.128,4.23,4.23,0,0,1,1,2.908v.154a4.237,4.237,0,0,1-.992,2.911A3.469,3.469,0,0,1,24.3,14.154a3.477,3.477,0,0,1-2.75-1.124,4.237,4.237,0,0,1-.992-2.911Zm2.131.154a3.448,3.448,0,0,0,.381,1.74,1.463,1.463,0,0,0,2.443,0,3.425,3.425,0,0,0,.385-1.736V9.964a3.39,3.39,0,0,0-.388-1.721,1.313,1.313,0,0,0-1.223-.667,1.3,1.3,0,0,0-1.212.67,3.42,3.42,0,0,0-.385,1.718Zm8.621-4.043.1,1.135a2.9,2.9,0,0,1,.974-.945,2.529,2.529,0,0,1,1.3-.337,2.356,2.356,0,0,1,1.875.773,3.663,3.663,0,0,1,.674,2.443V14H34.08V9.151a1.9,1.9,0,0,0-.3-1.2,1.093,1.093,0,0,0-.89-.355,1.867,1.867,0,0,0-.839.179,1.637,1.637,0,0,0-.6.494V14H29.319V6.075Zm9.075-1.941V6.075h1.34v1.5h-1.34v4.036a.921.921,0,0,0,.194.659.681.681,0,0,0,.509.2,2.042,2.042,0,0,0,.293-.018,2.467,2.467,0,0,0,.286-.062l.176,1.545a4.33,4.33,0,0,1-.626.165,3.733,3.733,0,0,1-.663.055,2.279,2.279,0,0,1-1.7-.608,2.666,2.666,0,0,1-.6-1.926V7.577H37.1v-1.5h1.157V4.134Zm6.094,10.02a3.566,3.566,0,0,1-2.769-1.088,3.986,3.986,0,0,1-1-2.8V9.972a4.339,4.339,0,0,1,.967-2.915A3.287,3.287,0,0,1,46.34,5.929a3.077,3.077,0,0,1,2.45.978,3.864,3.864,0,0,1,.853,2.633v1.106H44.919l-.022.044a2.141,2.141,0,0,0,.494,1.318,1.655,1.655,0,0,0,1.315.505,4.4,4.4,0,0,0,1.219-.146,4.976,4.976,0,0,0,1.036-.447l.579,1.318a3.97,3.97,0,0,1-1.289.652A5.717,5.717,0,0,1,46.479,14.154ZM46.34,7.577a1.188,1.188,0,0,0-.992.443A2.223,2.223,0,0,0,44.927,9.2l.015.037h2.607V9.071a1.851,1.851,0,0,0-.286-1.095A1.057,1.057,0,0,0,46.34,7.577Zm6.5-1.5.1,1.135a2.9,2.9,0,0,1,.974-.945,2.529,2.529,0,0,1,1.3-.337,2.356,2.356,0,0,1,1.875.773,3.663,3.663,0,0,1,.674,2.443V14H55.613V9.151a1.9,1.9,0,0,0-.3-1.2,1.093,1.093,0,0,0-.89-.355,1.867,1.867,0,0,0-.839.179,1.637,1.637,0,0,0-.6.494V14H50.852V6.075ZM61.6,14H59.465V6.075H61.6Zm0-9.822H59.465v-1.6H61.6ZM63.032,10.1a5.15,5.15,0,0,1,.809-3.025,2.628,2.628,0,0,1,2.281-1.15,2.219,2.219,0,0,1,1.069.256,2.573,2.573,0,0,1,.835.732V2.574h2.146V14H68.35l-.183-.974a2.649,2.649,0,0,1-.886.839,2.343,2.343,0,0,1-1.172.289,2.68,2.68,0,0,1-2.267-1.069,4.566,4.566,0,0,1-.809-2.827Zm2.131.154a3.228,3.228,0,0,0,.352,1.637,1.224,1.224,0,0,0,1.143.6,1.664,1.664,0,0,0,.806-.187,1.49,1.49,0,0,0,.564-.546V8.382a1.646,1.646,0,0,0-.56-.582,1.49,1.49,0,0,0-.795-.209,1.207,1.207,0,0,0-1.146.7,3.932,3.932,0,0,0-.363,1.816ZM71.5,9.964a4.253,4.253,0,0,1,.989-2.9,3.447,3.447,0,0,1,2.739-1.132,3.483,3.483,0,0,1,2.754,1.128,4.23,4.23,0,0,1,1,2.908v.154a4.237,4.237,0,0,1-.992,2.911,3.917,3.917,0,0,1-5.493,0,4.237,4.237,0,0,1-.992-2.911Zm2.131.154a3.448,3.448,0,0,0,.381,1.74,1.463,1.463,0,0,0,2.443,0,3.425,3.425,0,0,0,.385-1.736V9.964a3.39,3.39,0,0,0-.388-1.721,1.313,1.313,0,0,0-1.223-.667,1.3,1.3,0,0,0-1.212.67,3.42,3.42,0,0,0-.385,1.718ZM16.26,25.964a4.253,4.253,0,0,1,.989-2.9,3.447,3.447,0,0,1,2.739-1.132,3.483,3.483,0,0,1,2.754,1.128,4.23,4.23,0,0,1,1,2.908v.154a4.237,4.237,0,0,1-.992,2.911A3.469,3.469,0,0,1,20,30.154a3.477,3.477,0,0,1-2.75-1.124,4.237,4.237,0,0,1-.992-2.911Zm2.131.154a3.448,3.448,0,0,0,.381,1.74,1.463,1.463,0,0,0,2.443,0,3.425,3.425,0,0,0,.385-1.736v-.154a3.39,3.39,0,0,0-.388-1.721,1.313,1.313,0,0,0-1.223-.667,1.3,1.3,0,0,0-1.212.67,3.42,3.42,0,0,0-.385,1.718Zm13.711,2.4a1.19,1.19,0,0,0,.886-.333,1.21,1.21,0,0,0,.33-.89h1.948l.015.044a2.48,2.48,0,0,1-.894,2.01,3.342,3.342,0,0,1-2.285.809,3.377,3.377,0,0,1-2.717-1.124,4.273,4.273,0,0,1-.959-2.875v-.22a4.3,4.3,0,0,1,.956-2.875,3.347,3.347,0,0,1,2.706-1.132,3.268,3.268,0,0,1,2.336.835,2.79,2.79,0,0,1,.857,2.2L35.266,25H33.318a1.581,1.581,0,0,0-.326-1.022,1.1,1.1,0,0,0-.9-.406,1.221,1.221,0,0,0-1.176.663,3.635,3.635,0,0,0-.348,1.7v.22a3.622,3.622,0,0,0,.348,1.707A1.237,1.237,0,0,0,32.1,28.513Zm9.28.315a2.691,2.691,0,0,1-.93.981,2.466,2.466,0,0,1-1.311.344,2.41,2.41,0,0,1-1.959-.85,4.075,4.075,0,0,1-.707-2.637V22.075h2.131v4.607a2.558,2.558,0,0,0,.282,1.425,1.013,1.013,0,0,0,.875.385,2.131,2.131,0,0,0,.879-.165,1.482,1.482,0,0,0,.6-.487V22.075h2.139V30H41.609Zm7.046,1.326a3.566,3.566,0,0,1-2.769-1.088,3.986,3.986,0,0,1-1-2.8v-.293a4.339,4.339,0,0,1,.967-2.915,3.287,3.287,0,0,1,2.659-1.128,3.077,3.077,0,0,1,2.45.978,3.864,3.864,0,0,1,.853,2.633v1.106H46.868l-.022.044a2.141,2.141,0,0,0,.494,1.318,1.655,1.655,0,0,0,1.315.505,4.4,4.4,0,0,0,1.219-.146,4.976,4.976,0,0,0,1.036-.447l.579,1.318a3.97,3.97,0,0,1-1.289.652A5.717,5.717,0,0,1,48.428,30.154Zm-.139-6.577a1.188,1.188,0,0,0-.992.443,2.223,2.223,0,0,0-.421,1.176l.015.037H49.5v-.161a1.851,1.851,0,0,0-.286-1.095A1.057,1.057,0,0,0,48.289,23.577ZM57,23.914l-.784-.022a1.424,1.424,0,0,0-.784.2,1.253,1.253,0,0,0-.469.557V30H52.837V22.075h1.985l.1,1.172a2.5,2.5,0,0,1,.721-.97,1.685,1.685,0,0,1,1.318-.322q.135.026.275.062Zm8.262,2.344a4.552,4.552,0,0,1-.813,2.827,2.689,2.689,0,0,1-2.271,1.069,2.538,2.538,0,0,1-1.106-.231,2.272,2.272,0,0,1-.828-.677v3.8H58.118V22.075h1.926l.125.938a2.539,2.539,0,0,1,.846-.8,2.288,2.288,0,0,1,1.154-.282,2.637,2.637,0,0,1,2.285,1.15,5.132,5.132,0,0,1,.813,3.025ZM63.127,26.1a3.834,3.834,0,0,0-.374-1.816,1.218,1.218,0,0,0-1.143-.7,1.615,1.615,0,0,0-.824.2,1.411,1.411,0,0,0-.538.564v3.472a1.311,1.311,0,0,0,.538.513,1.814,1.814,0,0,0,.839.176,1.23,1.23,0,0,0,1.139-.608,3.209,3.209,0,0,0,.363-1.648Zm3.127-.139a4.253,4.253,0,0,1,.989-2.9,3.447,3.447,0,0,1,2.739-1.132,3.483,3.483,0,0,1,2.754,1.128,4.23,4.23,0,0,1,1,2.908v.154a4.237,4.237,0,0,1-.992,2.911,3.917,3.917,0,0,1-5.493,0,4.237,4.237,0,0,1-.992-2.911Zm2.131.154a3.448,3.448,0,0,0,.381,1.74,1.463,1.463,0,0,0,2.443,0,3.425,3.425,0,0,0,.385-1.736v-.154a3.39,3.39,0,0,0-.388-1.721,1.313,1.313,0,0,0-1.223-.667,1.3,1.3,0,0,0-1.212.67,3.42,3.42,0,0,0-.385,1.718Z" transform="translate(-1888.105 -6083)" fill="#636363"/>
    </g>
  </g>
</svg>
