<svg xmlns="http://www.w3.org/2000/svg" width="76.752" height="63.48" viewBox="0 0 76.752 63.48">
  <g id="Grupo_70142" data-name="Grupo 70142" transform="translate(-392.342 -5750.52)">
    <rect id="Rect치ngulo_8052" data-name="Rect치ngulo 8052" width="57.587" height="33.246" transform="translate(402.574 5772.675)" fill="#e3f8f2"/>
    <rect id="Rect치ngulo_8053" data-name="Rect치ngulo 8053" width="73.256" height="14.934" transform="translate(394.247 5752.551)" fill="#e3f8f2"/>
    <path id="Trazado_156550" data-name="Trazado 156550" d="M675.148,0a3.851,3.851,0,0,0-3.835,3.833v55.8a3.862,3.862,0,0,0,3.835,3.845h69.084a3.86,3.86,0,0,0,3.833-3.845V3.833A3.849,3.849,0,0,0,744.232,0Zm0,2.558h69.084a1.241,1.241,0,0,1,1.274,1.274v11.51H673.874V3.833a1.241,1.241,0,0,1,1.274-1.274m5.117,2.559a3.834,3.834,0,1,0,3.845,3.835,3.851,3.851,0,0,0-3.845-3.835m10.236,0a3.834,3.834,0,1,0,3.835,3.835A3.851,3.851,0,0,0,690.5,5.117m10.236,0a3.834,3.834,0,1,0,3.835,3.835,3.859,3.859,0,0,0-3.835-3.835m15.285,0a1.287,1.287,0,0,0-1.214,1.274V11.51a1.279,1.279,0,0,0,1.274,1.274h25.591a1.279,1.279,0,0,0,1.274-1.274V6.391a1.279,1.279,0,0,0-1.274-1.274ZM680.265,7.678a1.279,1.279,0,1,1-1.274,1.274,1.26,1.26,0,0,1,1.274-1.274m10.236,0a1.279,1.279,0,0,1,0,2.559,1.279,1.279,0,1,1,0-2.559m10.236,0a1.279,1.279,0,0,1,0,2.559,1.279,1.279,0,1,1,0-2.559m16.63,0h23.021v2.558H717.366ZM673.874,17.9h71.633V59.635a1.252,1.252,0,0,1-1.274,1.287H675.148a1.252,1.252,0,0,1-1.274-1.287Zm6.4,2.883a1.28,1.28,0,0,0-1.284,1.274V55.33A1.279,1.279,0,0,0,680.27,56.6h58.838a1.279,1.279,0,0,0,1.284-1.274V22.061a1.279,1.279,0,0,0-1.284-1.274Zm1.274,2.4h56.29v30.7h-56.29Z" transform="translate(-278.971 5750.52)"/>
    <path id="Trazado_156557" data-name="Trazado 156557" d="M809.175,170.106H805.99l-2.2-4.775a1.353,1.353,0,0,0-1.528-.555,1.043,1.043,0,0,0-.8.653l-2.715,9.333-2.918-14.127a1.211,1.211,0,0,0-1.374-.738,1.076,1.076,0,0,0-1.026.77l-2.448,15.76L787.81,156.2a1.181,1.181,0,0,0-1.338-.772,1.091,1.091,0,0,0-1.067.772l-3.169,20.233-2.45-15.76a1.183,1.183,0,0,0-1.341-.77,1.108,1.108,0,0,0-1.058.738l-2.855,13.81-2.754-10.928a1.24,1.24,0,0,0-1.408-.7,1.131,1.131,0,0,0-.954.641l-2.243,6.237H763.5c-.527,0-.955.31-.955.691s.428.691.955.691h4.21a1.21,1.21,0,0,0,1.172-.655l1.581-4.4L773.41,177.7a1.24,1.24,0,0,0,1.408.7,1.079,1.079,0,0,0,.979-.731l2.688-13.006,2.548,16.379a1.181,1.181,0,0,0,1.338.772,1.091,1.091,0,0,0,1.067-.772l3.169-20.25,3.172,20.251a1.181,1.181,0,0,0,1.338.772,1.091,1.091,0,0,0,1.067-.772l2.548-16.379,2.706,13.087a1.213,1.213,0,0,0,1.377.735,1.121,1.121,0,0,0,1-.685l2.978-10.265,1.6,3.477a.981.981,0,0,0,.906.472h3.874c1.264-.033,1.265-1.353,0-1.385" transform="translate(-355.618 5619.952)"/>
  </g>
</svg>
