<svg xmlns="http://www.w3.org/2000/svg" xmlns:xlink="http://www.w3.org/1999/xlink" width="505" height="240" viewBox="0 0 505 240">
  <defs>
    <linearGradient id="linear-gradient" x1="0.519" y1="1" x2="0.516" y2="0.158" gradientUnits="objectBoundingBox">
      <stop offset="0" stop-color="#fcefef"/>
      <stop offset="0.234" stop-color="#fcf0f0"/>
      <stop offset="0.77" stop-color="#fffcfc"/>
      <stop offset="1" stop-color="#fffdfd"/>
    </linearGradient>
    <clipPath id="clip-path">
      <path id="Trazado_155873" data-name="Trazado 155873" d="M145.7,48.281H6.724A6.732,6.732,0,0,0,0,55.005V190.343a7.006,7.006,0,0,0,2.515,5.227l2.645,2.645a6.985,6.985,0,0,0,5.292,2.515H189.54a2.375,2.375,0,0,1,1.535.563l10.74,9.1a6.7,6.7,0,0,0,8.689.006l10.78-9.112a2.378,2.378,0,0,1,1.534-.561H399.276A6.732,6.732,0,0,0,406,194.006V58.732a6.7,6.7,0,0,0-2.033-4.811L401.2,51.155a7.365,7.365,0,0,0-5.652-2.874H260.819a2.172,2.172,0,0,0-1.474,3.769q.479.483.962.961,1.32,1.326,2.645,2.646a2.164,2.164,0,0,0,1.6.7H397.924V190.278a2.377,2.377,0,0,1-2.375,2.375H219.09a6.732,6.732,0,0,0-4.34,1.589l-10.781,9.112a2.367,2.367,0,0,1-3.069,0l-10.74-9.1a6.73,6.73,0,0,0-4.348-1.6H8.077V58.732a2.377,2.377,0,0,1,2.375-2.375H149.423a2.2,2.2,0,0,0,1.234-4.01q-1.26-1.264-2.525-2.524c-.707-.677-1.291-1.543-2.388-1.543H145.7" fill="#d25d5d"/>
    </clipPath>
    <clipPath id="clip-path-2">
      <path id="Trazado_155883" data-name="Trazado 155883" d="M238.292,4.334c-2.98.026-5.734,1.831-8.006,4.9a22.89,22.89,0,0,0-1.921,3.114c-2.691,5.2-4.332,12.494-4.267,20.558,0,.019,0,.037,0,.055a47.42,47.42,0,0,0,3.637,18.5,25.212,25.212,0,0,0,2.976,5.117c2.328,3.029,5.114,4.782,8.094,4.755s5.734-1.831,8.006-4.9a25.2,25.2,0,0,0,2.884-5.17A47.428,47.428,0,0,0,253,32.7c0-.018,0-.037,0-.056-.079-8.064-1.851-15.327-4.635-20.477a22.982,22.982,0,0,0-1.977-3.079c-2.31-3-5.071-4.755-8.026-4.756h-.068" fill="#26cb99"/>
    </clipPath>
    <clipPath id="clip-path-3">
      <rect id="Rectángulo_7654" data-name="Rectángulo 7654" width="406" height="211.998" fill="none"/>
    </clipPath>
    <clipPath id="clip-path-4">
      <path id="Trazado_155893" data-name="Trazado 155893" d="M259.819,48.281a2.175,2.175,0,0,0-2.172,2.28,2.215,2.215,0,0,0,2.233,2.069H395.549a2.375,2.375,0,0,1,2.375,2.375v135.22a2.434,2.434,0,0,1-2.428,2.428H219.09a6.732,6.732,0,0,0-4.34,1.589l-10.781,9.112a2.367,2.367,0,0,1-3.069,0l-10.74-9.1a6.73,6.73,0,0,0-4.348-1.6H6.724a2.375,2.375,0,0,1-2.375-2.375V55.3A2.671,2.671,0,0,1,7.02,52.63H146.7a2.174,2.174,0,0,0,2.172-2.28,2.214,2.214,0,0,0-2.233-2.069H6.724A6.723,6.723,0,0,0,0,55.005V190.278A6.723,6.723,0,0,0,6.724,197H185.812a2.374,2.374,0,0,1,1.536.564l10.739,9.1a6.7,6.7,0,0,0,8.689.006l10.781-9.111A2.375,2.375,0,0,1,219.09,197H395.549a6.724,6.724,0,0,0,6.724-6.724V55.005a6.724,6.724,0,0,0-6.724-6.724Z" fill="#eb9595"/>
    </clipPath>
    <clipPath id="clip-path-5">
      <path id="Trazado_155896" data-name="Trazado 155896" d="M16.238,56.746A40.682,40.682,0,1,0,56.92,16.064,40.682,40.682,0,0,0,16.238,56.746" transform="translate(-16.238 -16.064)" fill="#607b82"/>
    </clipPath>
    <clipPath id="clip-path-6">
      <path id="Trazado_155897" data-name="Trazado 155897" d="M40.151,0a40.144,40.144,0,0,0-28.4,68.525A40.144,40.144,0,1,0,68.536,11.763,39.882,39.882,0,0,0,40.151,0Z" transform="translate(0 0)" fill="#26cb99"/>
    </clipPath>
    <clipPath id="clip-path-7">
      <rect id="Rectángulo_7658" data-name="Rectángulo 7658" width="85" height="84.961" fill="none"/>
    </clipPath>
  </defs>
  <g id="Grupo_69425" data-name="Grupo 69425" transform="translate(-810 -2505)">
    <g id="Grupo_69412" data-name="Grupo 69412">
      <rect id="Rectángulo_7633" data-name="Rectángulo 7633" width="505" height="240" rx="21" transform="translate(810 2505)" fill="none"/>
    </g>
    <g id="Grupo_69424" data-name="Grupo 69424">
      <path id="Trazado_155921" data-name="Trazado 155921" d="M0,0H402V145H216.168s-8.151,7.236-13.477,7.236c-3.819,0-13.811-7.236-13.811-7.236H0Z" transform="translate(862 2571)" fill="url(#linear-gradient)"/>
      <path id="Trazado_157203" data-name="Trazado 157203" d="M9.976-9.126h4L14.6,5.449H9.346Zm4.775-4.541a2.273,2.273,0,0,1-.784,1.78,2.837,2.837,0,0,1-1.956.7,2.837,2.837,0,0,1-1.956-.7,2.273,2.273,0,0,1-.784-1.78,2.273,2.273,0,0,1,.784-1.78,2.837,2.837,0,0,1,1.956-.7,2.837,2.837,0,0,1,1.956.7A2.273,2.273,0,0,1,14.751-13.667ZM31.04,0H25.913V-21.328H31.04Zm8.013-15.85.161,1.86a5.45,5.45,0,0,1,4.526-2.153A4.012,4.012,0,0,1,47.8-13.755a5.275,5.275,0,0,1,4.658-2.388q4.819,0,4.951,5.83V0H52.456V-10a3.022,3.022,0,0,0-.41-1.772,1.746,1.746,0,0,0-1.494-.557,2.339,2.339,0,0,0-2.183,1.3l.015.205V0H43.433V-9.976a3.176,3.176,0,0,0-.4-1.8,1.741,1.741,0,0,0-1.509-.557,2.367,2.367,0,0,0-2.168,1.3V0H34.424V-15.85ZM74.941-7.808a9.558,9.558,0,0,1-1.663,5.9,5.331,5.331,0,0,1-4.49,2.2A4.569,4.569,0,0,1,65.2-1.3v7.4H60.264V-15.85h4.614l.146,1.465a4.57,4.57,0,0,1,3.735-1.758,5.374,5.374,0,0,1,4.556,2.161,9.676,9.676,0,0,1,1.626,5.94ZM70-8.115q0-4.219-2.461-4.219a2.323,2.323,0,0,0-2.344,1.26v6.24a2.4,2.4,0,0,0,2.373,1.318q2.358,0,2.432-4.072Zm6.489.044a9.355,9.355,0,0,1,.923-4.226,6.6,6.6,0,0,1,2.651-2.849,7.985,7.985,0,0,1,4.058-1,7.288,7.288,0,0,1,5.61,2.2,8.46,8.46,0,0,1,2.051,6v.176a8.208,8.208,0,0,1-2.058,5.881A7.307,7.307,0,0,1,84.155.293a7.39,7.39,0,0,1-5.435-2.029,7.935,7.935,0,0,1-2.212-5.5Zm4.937.308a5.9,5.9,0,0,0,.688,3.223,2.294,2.294,0,0,0,2.036,1.025q2.637,0,2.7-4.058v-.5q0-4.263-2.725-4.263-2.476,0-2.681,3.677Zm22.119-3.618-1.626-.117q-2.329,0-2.988,1.465V0H94V-15.85h4.629l.161,2.036a3.823,3.823,0,0,1,3.472-2.329,4.814,4.814,0,0,1,1.377.176Zm8.262-8.408v3.94h2.607v3.428h-2.607v7.251a1.851,1.851,0,0,0,.322,1.245,1.729,1.729,0,0,0,1.274.352,7.242,7.242,0,0,0,1.23-.088v3.53a9.11,9.11,0,0,1-2.783.425,5.171,5.171,0,0,1-3.765-1.2,4.923,4.923,0,0,1-1.216-3.647v-7.866h-2.021V-15.85h2.021v-3.94ZM125.288,0a5.574,5.574,0,0,1-.469-1.421A4.59,4.59,0,0,1,121.011.293,5.623,5.623,0,0,1,117.2-1.062a4.313,4.313,0,0,1-1.567-3.406,4.433,4.433,0,0,1,1.9-3.9,9.7,9.7,0,0,1,5.537-1.318H124.6v-.839q0-2.193-1.89-2.193a1.545,1.545,0,0,0-1.758,1.737h-4.937a4.425,4.425,0,0,1,1.956-3.731,8.218,8.218,0,0,1,4.988-1.434,7.205,7.205,0,0,1,4.79,1.479,5.144,5.144,0,0,1,1.8,4.058v7.017a7.186,7.186,0,0,0,.674,3.34V0ZM122.2-3.223a2.754,2.754,0,0,0,1.531-.4,2.479,2.479,0,0,0,.872-.894V-7.046h-1.436q-2.578,0-2.578,2.314a1.413,1.413,0,0,0,.454,1.091A1.643,1.643,0,0,0,122.2-3.223ZM136.816-15.85l.161,1.86a5.375,5.375,0,0,1,4.526-2.153,4.522,4.522,0,0,1,3.7,1.479,7.044,7.044,0,0,1,1.267,4.453V0h-4.951V-10a2.675,2.675,0,0,0-.483-1.765,2.236,2.236,0,0,0-1.758-.564,2.354,2.354,0,0,0-2.153,1.143V0h-4.937V-15.85Zm18.135-3.94v3.94h2.607v3.428h-2.607v7.251a1.851,1.851,0,0,0,.322,1.245,1.729,1.729,0,0,0,1.274.352,7.242,7.242,0,0,0,1.23-.088v3.53A9.11,9.11,0,0,1,155,.293a5.171,5.171,0,0,1-3.765-1.2,4.923,4.923,0,0,1-1.216-3.647v-7.866h-2.021V-15.85h2.021v-3.94ZM167.168.293a8.148,8.148,0,0,1-5.9-2.175,7.512,7.512,0,0,1-2.256-5.662v-.41a9.734,9.734,0,0,1,.9-4.292,6.592,6.592,0,0,1,2.629-2.878,7.938,7.938,0,0,1,4.1-1.018,6.861,6.861,0,0,1,5.273,2.073,8.145,8.145,0,0,1,1.934,5.779v1.919h-9.814a3.558,3.558,0,0,0,1.157,2.095,3.443,3.443,0,0,0,2.314.762,4.437,4.437,0,0,0,3.662-1.641l2.256,2.666a6.306,6.306,0,0,1-2.615,2.029A8.836,8.836,0,0,1,167.168.293Zm-.557-12.627q-2.168,0-2.578,2.871h4.98v-.381a2.445,2.445,0,0,0-.6-1.838A2.39,2.39,0,0,0,166.611-12.334ZM188.2-6.753h-4l-.63-14.575h5.259Zm-4.775,4.541a2.273,2.273,0,0,1,.784-1.78,2.837,2.837,0,0,1,1.956-.7,2.837,2.837,0,0,1,1.956.7,2.273,2.273,0,0,1,.784,1.78,2.273,2.273,0,0,1-.784,1.78,2.837,2.837,0,0,1-1.956.7,2.837,2.837,0,0,1-1.956-.7A2.273,2.273,0,0,1,183.428-2.212Z" transform="translate(968 2658)" fill="#607b82"/>
      <g id="Grupo_69422" data-name="Grupo 69422" transform="translate(860 2519.001)">
        <g id="Grupo_69365" data-name="Grupo 69365">
          <g id="Grupo_69364" data-name="Grupo 69364" clip-path="url(#clip-path)">
            <rect id="Rectángulo_7636" data-name="Rectángulo 7636" width="409.787" height="173.361" transform="translate(-3.901 48.359) rotate(-1.366)" fill="#d25d5d"/>
          </g>
        </g>
        <g id="Grupo_69407" data-name="Grupo 69407">
          <g id="Grupo_69406" data-name="Grupo 69406" clip-path="url(#clip-path-3)">
            <path id="Trazado_155892" data-name="Trazado 155892" d="M188.544,77.574c-.876-1-1.786-1.979-2.642-3-.437-.5-.837-1.039-1.256-1.559-.4-.536-.8-1.069-1.185-1.616a39.831,39.831,0,0,1-3.881-7.006,39.079,39.079,0,0,1-2.289-7.674l-.335-1.976-.2-1.993c-.029-.333-.068-.664-.089-1l-.025-1-.045-2,.127,1.995.061,1c.033.331.082.66.123.99l.244,1.98.376,1.958a40.683,40.683,0,0,0,2.34,7.6,41.558,41.558,0,0,0,3.792,6.992c1.462,2.223,3.206,4.242,4.885,6.313" fill="#f5f5f5"/>
          </g>
        </g>
        <g id="Grupo_69409" data-name="Grupo 69409">
          <g id="Grupo_69408" data-name="Grupo 69408" clip-path="url(#clip-path-4)">
            <rect id="Rectángulo_7655" data-name="Rectángulo 7655" width="403.247" height="162.454" transform="translate(-0.981 48.287) rotate(-0.351)" fill="#eb9595"/>
          </g>
        </g>
      </g>
      <g id="Grupo_69423" data-name="Grupo 69423" transform="translate(1020 2519)">
        <g id="Grupo_69416" data-name="Grupo 69416" transform="translate(3.636 3.597)">
          <g id="Grupo_69415" data-name="Grupo 69415" clip-path="url(#clip-path-5)">
            <rect id="Rectángulo_7656" data-name="Rectángulo 7656" width="81.364" height="81.364" transform="translate(0 0)" fill="#607b82"/>
          </g>
        </g>
        <g id="Grupo_69418" data-name="Grupo 69418" transform="translate(0 0)">
          <g id="Grupo_69417" data-name="Grupo 69417" transform="translate(0 0)" clip-path="url(#clip-path-6)">
            <rect id="Rectángulo_7657" data-name="Rectángulo 7657" width="109.561" height="109.561" transform="matrix(0.868, -0.496, 0.496, 0.868, -34.605, 19.789)" fill="#26cb99"/>
          </g>
        </g>
        <g id="megafono_2_" data-name="megafono (2)" transform="translate(0.164 9.993) rotate(-21)">
          <path id="Trazado_156573" data-name="Trazado 156573" d="M3.152,152.533a.2.2,0,0,0-.259-.187l-1.412.471A2.166,2.166,0,0,0,0,154.874v5.105a2.166,2.166,0,0,0,1.482,2.056l1.412.471a.2.2,0,0,0,.259-.186C3.151,160.86,3.151,153.993,3.152,152.533Z" transform="translate(0 -115.692)" fill="#fff"/>
          <path id="Trazado_156574" data-name="Trazado 156574" d="M60.314,120H51.152A3.153,3.153,0,0,0,48,123.153V133.4a3.152,3.152,0,0,0,3.152,3.152h9.162a.3.3,0,0,0,.3-.3V120.3a.3.3,0,0,0-.3-.3Z" transform="translate(-43.272 -86.543)" fill="#fff"/>
          <path id="Trazado_156575" data-name="Trazado 156575" d="M192,74V90.329a.3.3,0,0,0,.247.292l11.482,1.914A34.567,34.567,0,0,1,213,95.457a.2.2,0,0,0,.282-.177V69.044a.2.2,0,0,0-.282-.177,34.562,34.562,0,0,1-9.268,2.922L192.247,73.7A.3.3,0,0,0,192,74Z" transform="translate(-173.086 -40.429)" fill="#fff"/>
          <path id="Trazado_156576" data-name="Trazado 156576" d="M428.335,24A4.34,4.34,0,0,0,424,28.336v26.8a4.335,4.335,0,0,0,8.669,0v-26.8A4.34,4.34,0,0,0,428.335,24Z" transform="translate(-382.23)" fill="#fff"/>
          <path id="Trazado_156577" data-name="Trazado 156577" d="M128.194,312.406v-5.88l.688-1.606a.2.2,0,0,0-.149-.272l-3.565-.595a3.937,3.937,0,0,0-.648-.054H118.8a.2.2,0,0,0-.169.3l.9,1.5v8.821a5.116,5.116,0,0,0,1.789,3.889l3.27,2.8a3.4,3.4,0,0,0,5.042-.7c1.084-1.626.933-1.17.933-4a3.169,3.169,0,0,0-.63-1.892Z" transform="translate(-106.916 -252.415)" fill="#fff"/>
        </g>
      </g>
    </g>
  </g>
</svg>
