<svg xmlns="http://www.w3.org/2000/svg" xmlns:xlink="http://www.w3.org/1999/xlink" width="505" height="240" viewBox="0 0 505 240">
  <defs>
    <linearGradient id="linear-gradient" x1="0.519" y1="1" x2="0.516" y2="0.158" gradientUnits="objectBoundingBox">
      <stop offset="0" stop-color="#fcefef"/>
      <stop offset="0.234" stop-color="#fcf0f0"/>
      <stop offset="0.77" stop-color="#fffcfc"/>
      <stop offset="1" stop-color="#fffdfd"/>
    </linearGradient>
    <clipPath id="clip-path">
      <path id="Trazado_155873" data-name="Trazado 155873" d="M145.7,48.281H6.724A6.732,6.732,0,0,0,0,55.005V190.343a7.006,7.006,0,0,0,2.515,5.227l2.645,2.645a6.985,6.985,0,0,0,5.292,2.515H189.54a2.375,2.375,0,0,1,1.535.563l10.74,9.1a6.7,6.7,0,0,0,8.689.006l10.78-9.112a2.378,2.378,0,0,1,1.534-.561H399.276A6.732,6.732,0,0,0,406,194.006V58.732a6.7,6.7,0,0,0-2.033-4.811L401.2,51.155a7.365,7.365,0,0,0-5.652-2.874H260.819a2.172,2.172,0,0,0-1.474,3.769q.479.483.962.961,1.32,1.326,2.645,2.646a2.164,2.164,0,0,0,1.6.7H397.924V190.278a2.377,2.377,0,0,1-2.375,2.375H219.09a6.732,6.732,0,0,0-4.34,1.589l-10.781,9.112a2.367,2.367,0,0,1-3.069,0l-10.74-9.1a6.73,6.73,0,0,0-4.348-1.6H8.077V58.732a2.377,2.377,0,0,1,2.375-2.375H149.423a2.2,2.2,0,0,0,1.234-4.01q-1.26-1.264-2.525-2.524c-.707-.677-1.291-1.543-2.388-1.543H145.7" fill="#d25d5d"/>
    </clipPath>
    <clipPath id="clip-path-2">
      <path id="Trazado_155883" data-name="Trazado 155883" d="M238.292,4.334c-2.98.026-5.734,1.831-8.006,4.9a22.89,22.89,0,0,0-1.921,3.114c-2.691,5.2-4.332,12.494-4.267,20.558,0,.019,0,.037,0,.055a47.42,47.42,0,0,0,3.637,18.5,25.212,25.212,0,0,0,2.976,5.117c2.328,3.029,5.114,4.782,8.094,4.755s5.734-1.831,8.006-4.9a25.2,25.2,0,0,0,2.884-5.17A47.428,47.428,0,0,0,253,32.7c0-.018,0-.037,0-.056-.079-8.064-1.851-15.327-4.635-20.477a22.982,22.982,0,0,0-1.977-3.079c-2.31-3-5.071-4.755-8.026-4.756h-.068" fill="#26cb99"/>
    </clipPath>
    <clipPath id="clip-path-3">
      <rect id="Rectángulo_7654" data-name="Rectángulo 7654" width="406" height="211.998" fill="none"/>
    </clipPath>
    <clipPath id="clip-path-4">
      <path id="Trazado_155893" data-name="Trazado 155893" d="M259.819,48.281a2.175,2.175,0,0,0-2.172,2.28,2.215,2.215,0,0,0,2.233,2.069H395.549a2.375,2.375,0,0,1,2.375,2.375v135.22a2.434,2.434,0,0,1-2.428,2.428H219.09a6.732,6.732,0,0,0-4.34,1.589l-10.781,9.112a2.367,2.367,0,0,1-3.069,0l-10.74-9.1a6.73,6.73,0,0,0-4.348-1.6H6.724a2.375,2.375,0,0,1-2.375-2.375V55.3A2.671,2.671,0,0,1,7.02,52.63H146.7a2.174,2.174,0,0,0,2.172-2.28,2.214,2.214,0,0,0-2.233-2.069H6.724A6.723,6.723,0,0,0,0,55.005V190.278A6.723,6.723,0,0,0,6.724,197H185.812a2.374,2.374,0,0,1,1.536.564l10.739,9.1a6.7,6.7,0,0,0,8.689.006l10.781-9.111A2.375,2.375,0,0,1,219.09,197H395.549a6.724,6.724,0,0,0,6.724-6.724V55.005a6.724,6.724,0,0,0-6.724-6.724Z" fill="#eb9595"/>
    </clipPath>
    <clipPath id="clip-path-5">
      <path id="Trazado_155896" data-name="Trazado 155896" d="M16.238,56.746A40.682,40.682,0,1,0,56.92,16.064,40.682,40.682,0,0,0,16.238,56.746" transform="translate(-16.238 -16.064)" fill="#607b82"/>
    </clipPath>
    <clipPath id="clip-path-6">
      <path id="Trazado_155897" data-name="Trazado 155897" d="M40.151,0a40.144,40.144,0,0,0-28.4,68.525A40.144,40.144,0,1,0,68.536,11.763,39.882,39.882,0,0,0,40.151,0Z" transform="translate(0 0)" fill="#26cb99"/>
    </clipPath>
    <clipPath id="clip-path-7">
      <rect id="Rectángulo_7658" data-name="Rectángulo 7658" width="85" height="84.961" fill="none"/>
    </clipPath>
  </defs>
  <g id="Grupo_70355" data-name="Grupo 70355" transform="translate(-285 -2772)">
    <g id="Grupo_70169" data-name="Grupo 70169" transform="translate(-525 267)">
      <g id="Grupo_69412" data-name="Grupo 69412">
        <rect id="Rectángulo_7633" data-name="Rectángulo 7633" width="505" height="240" rx="21" transform="translate(810 2505)" fill="none"/>
      </g>
      <g id="Grupo_69424" data-name="Grupo 69424">
        <path id="Trazado_155921" data-name="Trazado 155921" d="M0,0H402V145H216.168s-8.151,7.236-13.477,7.236c-3.819,0-13.811-7.236-13.811-7.236H0Z" transform="translate(862 2571)" fill="url(#linear-gradient)"/>
        <path id="Trazado_157202" data-name="Trazado 157202" d="M9.976-9.126h4L14.6,5.449H9.346Zm4.775-4.541a2.273,2.273,0,0,1-.784,1.78,2.837,2.837,0,0,1-1.956.7,2.837,2.837,0,0,1-1.956-.7,2.273,2.273,0,0,1-.784-1.78,2.273,2.273,0,0,1,.784-1.78,2.837,2.837,0,0,1,1.956-.7,2.837,2.837,0,0,1,1.956.7A2.273,2.273,0,0,1,14.751-13.667ZM37.676-3.984H30.63L29.4,0H23.906l7.822-21.328h4.834L44.443,0H38.921ZM31.86-7.954h4.585l-2.3-7.4ZM51.27-19.79v3.94h2.607v3.428H51.27v7.251a1.851,1.851,0,0,0,.322,1.245,1.729,1.729,0,0,0,1.274.352,7.242,7.242,0,0,0,1.23-.088v3.53a9.11,9.11,0,0,1-2.783.425,5.171,5.171,0,0,1-3.765-1.2,4.923,4.923,0,0,1-1.216-3.647v-7.866H44.312V-15.85h2.021v-3.94ZM63.486.293a8.148,8.148,0,0,1-5.9-2.175,7.512,7.512,0,0,1-2.256-5.662v-.41a9.734,9.734,0,0,1,.9-4.292,6.592,6.592,0,0,1,2.629-2.878,7.938,7.938,0,0,1,4.1-1.018,6.861,6.861,0,0,1,5.273,2.073,8.145,8.145,0,0,1,1.934,5.779v1.919H60.352a3.558,3.558,0,0,0,1.157,2.095,3.443,3.443,0,0,0,2.314.762,4.437,4.437,0,0,0,3.662-1.641L69.741-2.49A6.306,6.306,0,0,1,67.126-.461,8.836,8.836,0,0,1,63.486.293ZM62.93-12.334q-2.168,0-2.578,2.871h4.98v-.381a2.445,2.445,0,0,0-.6-1.838A2.39,2.39,0,0,0,62.93-12.334ZM76.685-15.85l.161,1.86a5.375,5.375,0,0,1,4.526-2.153,4.522,4.522,0,0,1,3.7,1.479,7.044,7.044,0,0,1,1.267,4.453V0H81.387V-10A2.675,2.675,0,0,0,80.9-11.77a2.236,2.236,0,0,0-1.758-.564,2.354,2.354,0,0,0-2.153,1.143V0H72.056V-15.85ZM95.771-3.516a2.2,2.2,0,0,0,1.611-.564,2.068,2.068,0,0,0,.557-1.575h4.629A5.48,5.48,0,0,1,100.7-1.377,6.947,6.947,0,0,1,95.889.293a7.034,7.034,0,0,1-5.449-2.168,8.542,8.542,0,0,1-1.992-6.006v-.205a9.654,9.654,0,0,1,.886-4.241,6.453,6.453,0,0,1,2.556-2.827,7.622,7.622,0,0,1,3.955-.989,6.86,6.86,0,0,1,4.907,1.714,6.079,6.079,0,0,1,1.816,4.644H97.939a2.71,2.71,0,0,0-.6-1.89,2.073,2.073,0,0,0-1.611-.659q-1.919,0-2.241,2.446a17.262,17.262,0,0,0-.1,2.139,6.78,6.78,0,0,0,.571,3.311A1.978,1.978,0,0,0,95.771-3.516ZM109.863,0h-4.951V-15.85h4.951Zm-5.244-19.937a2.2,2.2,0,0,1,.762-1.729,2.874,2.874,0,0,1,1.978-.674,2.874,2.874,0,0,1,1.978.674,2.2,2.2,0,0,1,.762,1.729,2.2,2.2,0,0,1-.762,1.729,2.874,2.874,0,0,1-1.978.674,2.874,2.874,0,0,1-1.978-.674A2.2,2.2,0,0,1,104.619-19.937ZM112.28-8.071A9.355,9.355,0,0,1,113.2-12.3a6.6,6.6,0,0,1,2.651-2.849,7.985,7.985,0,0,1,4.058-1,7.288,7.288,0,0,1,5.61,2.2,8.46,8.46,0,0,1,2.051,6v.176a8.208,8.208,0,0,1-2.058,5.881A7.307,7.307,0,0,1,119.941.293a7.39,7.39,0,0,1-5.435-2.029,7.935,7.935,0,0,1-2.212-5.5Zm4.937.308a5.9,5.9,0,0,0,.688,3.223,2.294,2.294,0,0,0,2.036,1.025q2.637,0,2.7-4.058v-.5q0-4.263-2.725-4.263-2.476,0-2.681,3.677ZM120.586-22.5H125.8l-4.072,4.6-4.028-.007Zm13.7,6.65.161,1.86a5.375,5.375,0,0,1,4.526-2.153,4.522,4.522,0,0,1,3.7,1.479,7.044,7.044,0,0,1,1.267,4.453V0h-4.951V-10a2.675,2.675,0,0,0-.483-1.765,2.236,2.236,0,0,0-1.758-.564,2.354,2.354,0,0,0-2.153,1.143V0h-4.937V-15.85Zm24.756,9.1h-4l-.63-14.575h5.259Zm-4.775,4.541a2.273,2.273,0,0,1,.784-1.78,2.837,2.837,0,0,1,1.956-.7,2.837,2.837,0,0,1,1.956.7,2.273,2.273,0,0,1,.784,1.78,2.273,2.273,0,0,1-.784,1.78,2.837,2.837,0,0,1-1.956.7,2.837,2.837,0,0,1-1.956-.7A2.273,2.273,0,0,1,154.263-2.212Z" transform="translate(968 2658)" fill="#607b82"/>
        <g id="Grupo_69422" data-name="Grupo 69422" transform="translate(860 2519.001)">
          <g id="Grupo_69365" data-name="Grupo 69365">
            <g id="Grupo_69364" data-name="Grupo 69364" clip-path="url(#clip-path)">
              <rect id="Rectángulo_7636" data-name="Rectángulo 7636" width="409.787" height="173.361" transform="translate(-3.901 48.359) rotate(-1.366)" fill="#d25d5d"/>
            </g>
          </g>
          <g id="Grupo_69407" data-name="Grupo 69407">
            <g id="Grupo_69406" data-name="Grupo 69406" clip-path="url(#clip-path-3)">
              <path id="Trazado_155892" data-name="Trazado 155892" d="M188.544,77.574c-.876-1-1.786-1.979-2.642-3-.437-.5-.837-1.039-1.256-1.559-.4-.536-.8-1.069-1.185-1.616a39.831,39.831,0,0,1-3.881-7.006,39.079,39.079,0,0,1-2.289-7.674l-.335-1.976-.2-1.993c-.029-.333-.068-.664-.089-1l-.025-1-.045-2,.127,1.995.061,1c.033.331.082.66.123.99l.244,1.98.376,1.958a40.683,40.683,0,0,0,2.34,7.6,41.558,41.558,0,0,0,3.792,6.992c1.462,2.223,3.206,4.242,4.885,6.313" fill="#f5f5f5"/>
            </g>
          </g>
          <g id="Grupo_69409" data-name="Grupo 69409">
            <g id="Grupo_69408" data-name="Grupo 69408" clip-path="url(#clip-path-4)">
              <rect id="Rectángulo_7655" data-name="Rectángulo 7655" width="403.247" height="162.454" transform="translate(-0.981 48.287) rotate(-0.351)" fill="#eb9595"/>
            </g>
          </g>
        </g>
        <g id="Grupo_69423" data-name="Grupo 69423" transform="translate(1020 2519)">
          <g id="Grupo_69416" data-name="Grupo 69416" transform="translate(3.636 3.597)">
            <g id="Grupo_69415" data-name="Grupo 69415" clip-path="url(#clip-path-5)">
              <rect id="Rectángulo_7656" data-name="Rectángulo 7656" width="81.364" height="81.364" transform="translate(0 0)" fill="#607b82"/>
            </g>
          </g>
          <g id="Grupo_69418" data-name="Grupo 69418" transform="translate(0 0)">
            <g id="Grupo_69417" data-name="Grupo 69417" transform="translate(0 0)" clip-path="url(#clip-path-6)">
              <rect id="Rectángulo_7657" data-name="Rectángulo 7657" width="109.561" height="109.561" transform="matrix(0.868, -0.496, 0.496, 0.868, -34.605, 19.789)" fill="#26cb99"/>
            </g>
          </g>
          <g id="Grupo_70178" data-name="Grupo 70178">
            <g id="megafono" transform="translate(9.313 28.068) rotate(-16)">
              <path id="Trazado_156568" data-name="Trazado 156568" d="M8.792,12.777A8.8,8.8,0,0,1,0,3.985,8.32,8.32,0,0,1,.414,1.334a1.953,1.953,0,1,1,3.7,1.239,4.524,4.524,0,0,0-.211,1.413,4.879,4.879,0,0,0,9.625,1.139,1.953,1.953,0,1,1,3.8.889,8.731,8.731,0,0,1-8.544,6.764Z" transform="translate(8.157 25.323)" fill="#fff"/>
              <path id="Trazado_156569" data-name="Trazado 156569" d="M45.428,37.123a1.511,1.511,0,0,1-.406-.057L1.059,24.366A1.467,1.467,0,0,1,0,22.957V14.165a1.467,1.467,0,0,1,1.059-1.409L45.021.056a1.465,1.465,0,0,1,1.872,1.409V35.657a1.462,1.462,0,0,1-1.465,1.465Z" transform="translate(0.83 1.466)" fill="#fff"/>
              <path id="Trazado_156570" data-name="Trazado 156570" d="M1.954,40.055A1.955,1.955,0,0,1,0,38.1V1.954a1.954,1.954,0,1,1,3.908,0V38.1A1.955,1.955,0,0,1,1.954,40.055Z" transform="translate(43.815 0)" fill="#fff"/>
              <path id="Trazado_156571" data-name="Trazado 156571" d="M1.954,16.608A1.955,1.955,0,0,1,0,14.654V1.954a1.954,1.954,0,1,1,3.908,0v12.7A1.955,1.955,0,0,1,1.954,16.608Z" transform="translate(0.83 11.723)" fill="#fff"/>
              <path id="Trazado_156585" data-name="Trazado 156585" d="M0,0,5.321,19.368" transform="translate(5.338 10.19) rotate(16)" fill="none" stroke="#26cb99" stroke-width="1"/>
            </g>
            <path id="Trazado_156584" data-name="Trazado 156584" d="M-4573.323-8897.471l11.126,38.536" transform="translate(4623.502 8913.012)" fill="none" stroke="#26cb99" stroke-width="2"/>
          </g>
        </g>
      </g>
    </g>
  </g>
</svg>
