<svg xmlns="http://www.w3.org/2000/svg" width="76.752" height="63.48" viewBox="0 0 76.752 63.48">
  <g id="Grupo_70149" data-name="Grupo 70149" transform="translate(-600 -4714)">
    <rect id="Rectángulo_8058" data-name="Rectángulo 8058" width="73" height="60" transform="translate(602 4716)" fill="#fff"/>
    <g id="Grupo_70143" data-name="Grupo 70143" transform="translate(315 -1036.521)">
      <rect id="Rectángulo_8054" data-name="Rectángulo 8054" width="57.587" height="33.246" transform="translate(295.07 5772.675)" fill="#e3f8f2"/>
      <rect id="Rectángulo_8055" data-name="Rectángulo 8055" width="73.256" height="14.934" transform="translate(286.744 5752.551)" fill="#e3f8f2"/>
      <path id="Trazado_156551" data-name="Trazado 156551" d="M3.835,0A3.851,3.851,0,0,0,0,3.833v55.8A3.862,3.862,0,0,0,3.835,63.48H72.919a3.86,3.86,0,0,0,3.833-3.845V3.833A3.849,3.849,0,0,0,72.919,0Zm0,2.558H72.919a1.241,1.241,0,0,1,1.274,1.274v11.51H2.561V3.833A1.241,1.241,0,0,1,3.835,2.558M8.952,5.117A3.834,3.834,0,1,0,12.8,8.952,3.851,3.851,0,0,0,8.952,5.117m10.236,0a3.834,3.834,0,1,0,3.835,3.835,3.851,3.851,0,0,0-3.835-3.835m10.236,0a3.834,3.834,0,1,0,3.835,3.835,3.859,3.859,0,0,0-3.835-3.835m15.285,0A1.287,1.287,0,0,0,43.5,6.391V11.51a1.279,1.279,0,0,0,1.274,1.274H70.361a1.279,1.279,0,0,0,1.274-1.274V6.391a1.279,1.279,0,0,0-1.274-1.274ZM8.952,7.678A1.279,1.279,0,1,1,7.678,8.952,1.26,1.26,0,0,1,8.952,7.678m10.236,0a1.279,1.279,0,0,1,0,2.558,1.279,1.279,0,1,1,0-2.558m10.236,0a1.279,1.279,0,0,1,0,2.558,1.279,1.279,0,1,1,0-2.558m16.63,0H69.074v2.558H46.053ZM2.561,17.9H74.193V59.635a1.252,1.252,0,0,1-1.274,1.287H3.835a1.252,1.252,0,0,1-1.274-1.287Zm6.4,2.883a1.279,1.279,0,0,0-1.284,1.274V55.33A1.279,1.279,0,0,0,8.957,56.6H67.795a1.279,1.279,0,0,0,1.284-1.274V22.061a1.279,1.279,0,0,0-1.284-1.274Zm1.274,2.4h56.29v30.7H10.231Zm22.975,7.835A1.281,1.281,0,0,0,31.977,32.3v12.8a1.279,1.279,0,0,0,1.956,1.084l10.236-6.4a1.279,1.279,0,0,0,0-2.164l-10.236-6.4a1.279,1.279,0,0,0-.727-.19Zm1.329,3.58,6.553,4.1-6.553,4.09Z" transform="translate(285 5750.52)"/>
    </g>
  </g>
</svg>
